<svg width="24" height="24" viewBox="0 0 24 24" fill="none" xmlns="http://www.w3.org/2000/svg">
<path d="M22.9642 13.8226C22.9603 13.7638 22.9508 13.7055 22.936 13.6484L20.6313 7.51135C21.0508 7.24005 21.3957 6.86818 21.6347 6.42956C21.8738 5.99095 21.9993 5.49952 22 5C22 4.73478 21.8946 4.48043 21.7071 4.29289C21.5196 4.10536 21.2652 4 21 4C20.7348 4 20.4804 4.10536 20.2929 4.29289C20.1054 4.48043 20 4.73478 20 5C19.9999 5.22285 19.9254 5.43929 19.7884 5.61499C19.6513 5.79069 19.4595 5.91558 19.2433 5.96987C19.0272 6.02416 18.7991 6.00472 18.5953 5.91465C18.3915 5.82457 18.2235 5.66902 18.1182 5.47266C17.8616 5.01717 17.4863 4.63972 17.0324 4.38042C16.5784 4.12111 16.0627 3.98965 15.54 4H13V3C13 2.73478 12.8946 2.48043 12.7071 2.29289C12.5196 2.10536 12.2652 2 12 2C11.7348 2 11.4804 2.10536 11.2929 2.29289C11.1054 2.48043 11 2.73478 11 3V4H8.46C7.93731 3.98965 7.42158 4.12111 6.96762 4.38042C6.51366 4.63972 6.13844 5.01717 5.88184 5.47266C5.77647 5.66902 5.60855 5.82457 5.40471 5.91465C5.20088 6.00472 4.97281 6.02416 4.75668 5.96987C4.54054 5.91558 4.34872 5.79069 4.21165 5.61499C4.07457 5.43929 4.00008 5.22285 4 5C4 4.73478 3.89464 4.48043 3.70711 4.29289C3.51957 4.10536 3.26522 4 3 4C2.73478 4 2.48043 4.10536 2.29289 4.29289C2.10536 4.48043 2 4.73478 2 5C2.00065 5.49952 2.12621 5.99095 2.36525 6.42956C2.60429 6.86818 2.94922 7.24005 3.36865 7.51135L1.064 13.6484C1.04921 13.7055 1.03977 13.7638 1.03581 13.8226C1.01825 13.8805 1.00626 13.9399 1 14C1 14.0093 1.00269 14.0178 1.00275 14.0271C1.00305 14.0403 1.00575 14.0524 1.00665 14.0655C1.02222 15.1144 1.4498 16.115 2.197 16.8512C2.94421 17.5874 3.95105 18.0001 5 18.0001C6.04895 18.0001 7.05579 17.5874 7.803 16.8512C8.5502 16.115 8.97778 15.1144 8.99335 14.0655C8.9942 14.0524 8.99695 14.0403 8.99725 14.0271C8.99731 14.0178 9 14.0093 9 14C8.99376 13.9399 8.98178 13.8805 8.96423 13.8226C8.96027 13.7638 8.95083 13.7055 8.93604 13.6484L6.62866 7.50421C7.05242 7.23377 7.40114 6.86085 7.64258 6.41992C7.72984 6.2842 7.85137 6.1739 7.99489 6.10017C8.13841 6.02644 8.29885 5.99189 8.46 6H11V20H8C7.73478 20 7.48043 20.1054 7.29289 20.2929C7.10536 20.4804 7 20.7348 7 21C7 21.2652 7.10536 21.5196 7.29289 21.7071C7.48043 21.8946 7.73478 22 8 22H16C16.2652 22 16.5196 21.8946 16.7071 21.7071C16.8946 21.5196 17 21.2652 17 21C17 20.7348 16.8946 20.4804 16.7071 20.2929C16.5196 20.1054 16.2652 20 16 20H13V6H15.54C15.7011 5.9919 15.8616 6.02646 16.0051 6.10018C16.1486 6.17391 16.2701 6.2842 16.3574 6.41992C16.5988 6.86085 16.9475 7.23377 17.3713 7.50421L15.064 13.6484C15.0492 13.7055 15.0398 13.7638 15.0358 13.8226C15.0182 13.8805 15.0063 13.9399 15 14C15 14.0093 15.0027 14.0178 15.0028 14.0271C15.0031 14.0403 15.0057 14.0524 15.0066 14.0655C15.0222 15.1144 15.4498 16.115 16.197 16.8512C16.9442 17.5874 17.951 18.0001 19 18.0001C20.049 18.0001 21.0558 17.5874 21.803 16.8512C22.5502 16.115 22.9778 15.1144 22.9933 14.0655C22.9942 14.0524 22.9969 14.0403 22.9972 14.0271C22.9973 14.0178 23 14.0093 23 14C22.9938 13.9399 22.9818 13.8805 22.9642 13.8226ZM5 8.85553L6.5564 13H3.4436L5 8.85553ZM6.72266 15C6.54618 15.3011 6.29479 15.5515 5.99293 15.7267C5.69107 15.9019 5.34901 15.9961 5 16C4.64903 15.9999 4.30428 15.9074 4.00036 15.7319C3.69644 15.5563 3.44405 15.3039 3.26855 15H6.72266ZM19 8.85553L20.5564 13H17.4436L19 8.85553ZM19 16C18.649 15.9999 18.3043 15.9074 18.0004 15.7319C17.6964 15.5563 17.4441 15.3039 17.2686 15H20.7227C20.5462 15.3011 20.2948 15.5515 19.9929 15.7267C19.6911 15.9019 19.349 15.9961 19 16Z" fill="#B0B4BB"/>
<path fill-rule="evenodd" clip-rule="evenodd" d="M21.6668 15.3667L21.5854 15.5056C21.3217 15.9556 20.946 16.3297 20.495 16.5915C20.0439 16.8534 19.5328 16.9941 19.0112 16.9999L19 17.0001C19.7863 17.0001 20.541 16.6907 21.1012 16.1389C21.3321 15.9114 21.5222 15.6502 21.6668 15.3667ZM15.064 13.6484L17.3713 7.50421C16.9475 7.23377 16.5988 6.86085 16.3574 6.41992C16.2701 6.2842 16.1486 6.17391 16.0051 6.10018C15.8616 6.02646 15.7011 5.9919 15.54 6H13V20H16C16.2652 20 16.5196 20.1054 16.7071 20.2929C16.8946 20.4804 17 20.7348 17 21C17 21.2652 16.8946 21.5196 16.7071 21.7071C16.5196 21.8946 16.2652 22 16 22H8C7.73478 22 7.48043 21.8946 7.29289 21.7071C7.10536 21.5196 7 21.2652 7 21C7 20.7348 7.10536 20.4804 7.29289 20.2929C7.48043 20.1054 7.73478 20 8 20H11V6H8.46C8.29885 5.99189 8.13841 6.02644 7.99489 6.10017C7.85137 6.1739 7.72984 6.2842 7.64258 6.41992C7.40114 6.86085 7.05242 7.23377 6.62866 7.50421L8.93604 13.6484C8.95083 13.7055 8.96027 13.7638 8.96423 13.8226C8.98178 13.8805 8.99376 13.9399 9 14C9 14.0047 8.99931 14.0092 8.99863 14.0137C8.99795 14.0181 8.99728 14.0225 8.99725 14.0271C8.99708 14.0345 8.99614 14.0416 8.9952 14.0486C8.99446 14.0542 8.99372 14.0598 8.99335 14.0655C8.97778 15.1144 8.5502 16.115 7.803 16.8512C7.05579 17.5874 6.04895 18.0001 5 18.0001C3.95105 18.0001 2.94421 17.5874 2.197 16.8512C1.4498 16.115 1.02222 15.1144 1.00665 14.0655C1.00626 14.0599 1.00554 14.0544 1.00481 14.0489C1.00387 14.0417 1.00292 14.0346 1.00275 14.0271C1.00272 14.0225 1.00205 14.0181 1.00137 14.0137C1.00069 14.0092 1 14.0047 1 14C1.00626 13.9399 1.01825 13.8805 1.03581 13.8226C1.03977 13.7638 1.04921 13.7055 1.064 13.6484L3.36865 7.51135C2.94922 7.24006 2.60429 6.86818 2.36525 6.42956C2.12621 5.99095 2.00065 5.49952 2 5C2 4.73478 2.10536 4.48043 2.29289 4.29289C2.48043 4.10536 2.73478 4 3 4C3.26522 4 3.51957 4.10536 3.70711 4.29289C3.89464 4.48043 4 4.73478 4 5C4.00008 5.22285 4.07457 5.43929 4.21165 5.61499C4.34872 5.79069 4.54054 5.91559 4.75668 5.96987C4.97281 6.02416 5.20088 6.00472 5.40471 5.91465C5.60855 5.82457 5.77647 5.66902 5.88184 5.47266C6.13844 5.01717 6.51366 4.63972 6.96762 4.38042C7.42158 4.12111 7.93731 3.98965 8.46 4H11V3C11 2.73478 11.1054 2.48043 11.2929 2.29289C11.4804 2.10536 11.7348 2 12 2C12.2652 2 12.5196 2.10536 12.7071 2.29289C12.8946 2.48043 13 2.73478 13 3V4H15.54C16.0627 3.98965 16.5784 4.12111 17.0324 4.38042C17.4863 4.63972 17.8616 5.01717 18.1182 5.47266C18.2235 5.66902 18.3915 5.82457 18.5953 5.91465C18.7991 6.00472 19.0272 6.02416 19.2433 5.96987C19.4595 5.91559 19.6513 5.79069 19.7884 5.61499C19.9254 5.43929 19.9999 5.22285 20 5C20 4.73478 20.1054 4.48043 20.2929 4.29289C20.4804 4.10536 20.7348 4 21 4C21.2652 4 21.5196 4.10536 21.7071 4.29289C21.8946 4.48043 22 4.73478 22 5C21.9993 5.49952 21.8738 5.99095 21.6347 6.42956C21.3957 6.86818 21.0508 7.24006 20.6313 7.51135L22.936 13.6484C22.9508 13.7055 22.9603 13.7638 22.9642 13.8226C22.9818 13.8805 22.9938 13.9399 23 14C23 14.0047 22.9993 14.0092 22.9986 14.0137C22.998 14.0181 22.9973 14.0225 22.9972 14.0271C22.9971 14.0345 22.9961 14.0416 22.9952 14.0486C22.9945 14.0542 22.9937 14.0598 22.9933 14.0655C22.9778 15.1144 22.5502 16.115 21.803 16.8512C21.0558 17.5874 20.049 18.0001 19 18.0001C17.951 18.0001 16.9442 17.5874 16.197 16.8512C15.4498 16.115 15.0222 15.1144 15.0066 14.0655C15.0063 14.0599 15.0055 14.0544 15.0048 14.0489C15.0039 14.0417 15.0029 14.0346 15.0028 14.0271C15.0027 14.0225 15.002 14.0181 15.0014 14.0137C15.0007 14.0092 15 14.0047 15 14C15.0063 13.9399 15.0182 13.8805 15.0358 13.8226C15.0398 13.7638 15.0492 13.7055 15.064 13.6484ZM22.0091 13.8695L22.0096 13.8662L22.01 13.8636C22.0098 13.8649 22.0094 13.8671 22.0091 13.8695ZM17.0252 5.64944C16.8864 5.49011 16.7214 5.35443 16.5364 5.24874C16.2794 5.10196 15.9922 5.01778 15.6979 5.00211C15.9636 5.01764 16.224 5.08839 16.462 5.2107C16.6763 5.32078 16.8672 5.46986 17.0252 5.64944ZM18.1233 6.79784L18.5922 7.09707L18.6408 6.96756C18.4869 6.93951 18.336 6.89334 18.1911 6.82932C18.1683 6.81924 18.1457 6.80874 18.1233 6.79784ZM19.3591 6.96744L19.4123 7.10892L19.9624 6.75305C19.8135 6.83483 19.6539 6.89782 19.4869 6.93975C19.4445 6.95039 19.4019 6.95962 19.3591 6.96744ZM5.87652 6.79793C5.85421 6.80879 5.83167 6.81926 5.80891 6.82932C5.66404 6.89334 5.51305 6.93951 5.35919 6.96756L5.40781 7.09705L5.87652 6.79793ZM4.64086 6.96744C4.59808 6.95962 4.55546 6.95039 4.51307 6.93975C4.34614 6.89782 4.18646 6.83482 4.03754 6.75305L4.58773 7.10892L4.64086 6.96744ZM6.97904 5.6446C7.13624 5.46717 7.32558 5.31978 7.53795 5.21068C7.77578 5.0885 8.03584 5.01778 8.30124 5.00215C8.00728 5.01793 7.72035 5.1021 7.46361 5.24874C7.28047 5.35336 7.1169 5.48736 6.97904 5.6446ZM4.99963 17.0001C4.70627 17 4.41731 16.9569 4.14122 16.8742C4.41858 16.9572 4.70767 16.9999 4.99963 17.0001ZM4.99963 17.0001C5.78594 17.0001 6.54105 16.6907 7.10116 16.1389C7.33206 15.9114 7.52224 15.6502 7.66685 15.3667L7.58541 15.5056C7.32169 15.9556 6.94604 16.3297 6.49497 16.5915C6.0439 16.8534 5.53276 16.9941 5.01123 16.9999L4.99963 17.0001ZM5 8.85553L3.4436 13H6.5564L5 8.85553ZM6.72266 15H3.26855C3.44405 15.3039 3.69644 15.5563 4.00036 15.7319C4.30428 15.9074 4.64903 15.9999 5 16C5.34901 15.9961 5.69107 15.9019 5.99293 15.7267C6.29479 15.5515 6.54618 15.3011 6.72266 15ZM19 8.85553L17.4436 13H20.5564L19 8.85553ZM17.2686 15C17.4441 15.3039 17.6964 15.5563 18.0004 15.7319C18.3043 15.9074 18.649 15.9999 19 16C19.349 15.9961 19.6911 15.9019 19.9929 15.7267C20.2948 15.5515 20.5462 15.3011 20.7227 15H17.2686Z" fill="#B0B4BB"/>
</svg>
