<svg width="23" height="25" fill="none" xmlns="http://www.w3.org/2000/svg"><g clip-path="url(#clip0)"><path d="M20.403 2.366C19.801 1.81 17.365.042 11.941.018c0 0-6.398-.386-9.516 2.475C.689 4.229.078 6.77.014 9.92c-.065 3.15-.148 9.052 5.542 10.653h.006l-.004 2.442s-.036.989.615 1.19c.787.245 1.25-.506 2.001-1.316.413-.445.983-1.098 1.412-1.598 3.892.328 6.885-.42 7.225-.531.785-.255 5.232-.825 5.955-6.727.746-6.084-.361-9.932-2.363-11.667z" fill="#fff"/><path d="M19.139 3.594c-.51-.462-2.71-1.844-7.298-1.864 0 0-5.434-.357-8.071 2.032-1.47 1.45-1.963 3.605-2.017 6.235-.055 2.631-.336 7.656 4.476 8.993l-.021 4.058c0 .23.036.387.167.419.094.023.236-.026.356-.146.77-.772 3.232-3.744 3.232-3.744 3.305.216 5.935-.437 6.217-.529.667-.214 4.273-.524 4.883-5.454.631-5.081-.231-8.55-1.924-10z" fill="#7360F2"/><path d="M14.174 9.781c-.06-1.203-.67-1.835-1.834-1.895m3.408 2.424c.024-1.122-.308-2.058-.996-2.81-.691-.755-1.649-1.17-2.877-1.26" stroke="#fff" stroke-width=".614" stroke-linecap="round" stroke-linejoin="round"/><path d="M17.36 10.94c-.016-1.946-.597-3.478-1.744-4.596-1.148-1.12-2.575-1.684-4.282-1.696" stroke="#fff" stroke-width=".614" stroke-linecap="round" stroke-linejoin="round"/><path d="M12.401 13.89s.431.037.664-.25l.452-.569c.219-.282.746-.462 1.262-.175.386.22.762.46 1.124.719.343.251 1.044.837 1.046.837.334.282.412.696.184 1.133l-.002.009a4.72 4.72 0 01-.942 1.16l-.008.006c-.325.272-.644.426-.957.463a1.275 1.275 0 01-.547-.054l-.01-.015c-.482-.136-1.288-.477-2.63-1.217a15.667 15.667 0 01-2.21-1.46 11.59 11.59 0 01-.994-.881l-.033-.034-.034-.033-.033-.033-.033-.034a11.588 11.588 0 01-.882-.994 15.68 15.68 0 01-1.46-2.21c-.74-1.341-1.08-2.146-1.217-2.63l-.015-.01a1.274 1.274 0 01-.053-.547c.039-.312.193-.631.463-.957l.006-.008a4.714 4.714 0 011.16-.942l.01-.002c.436-.228.85-.15 1.132.182.002.002.587.703.837 1.045.258.364.498.74.719 1.126.287.516.107 1.044-.175 1.262l-.57.453c-.287.232-.25.663-.25.663s.844 3.193 3.996 3.997z" fill="#fff"/></g><defs><clipPath id="clip0"><path fill="#fff" d="M0 0h23v24.253H0z"/></clipPath></defs></svg>