<svg width="24" height="24" viewBox="0 0 24 24" fill="none" xmlns="http://www.w3.org/2000/svg">
<path d="M20.4687 8.99999C20.6665 8.99999 20.8599 8.94134 21.0243 8.83146C21.1888 8.72158 21.3169 8.5654 21.3926 8.38267C21.4683 8.19995 21.4881 7.99888 21.4495 7.8049C21.4109 7.61092 21.3157 7.43274 21.1758 7.29288C21.036 7.15303 20.8578 7.05779 20.6638 7.0192C20.4699 6.98062 20.2688 7.00042 20.0861 7.07611C19.9033 7.1518 19.7472 7.27997 19.6373 7.44442C19.5274 7.60887 19.4687 7.80221 19.4687 7.99999C19.4687 8.26521 19.5741 8.51956 19.7616 8.7071C19.9492 8.89463 20.2035 8.99999 20.4687 8.99999ZM17.4687 8.99999C17.6665 8.99999 17.8599 8.94134 18.0243 8.83146C18.1888 8.72158 18.3169 8.5654 18.3926 8.38267C18.4683 8.19995 18.4881 7.99888 18.4495 7.8049C18.4109 7.61092 18.3157 7.43274 18.1758 7.29288C18.036 7.15303 17.8578 7.05779 17.6638 7.0192C17.4699 6.98062 17.2688 7.00042 17.0861 7.07611C16.9033 7.1518 16.7472 7.27997 16.6373 7.44442C16.5274 7.60887 16.4687 7.80221 16.4687 7.99999C16.4687 8.26521 16.5741 8.51956 16.7616 8.7071C16.9492 8.89463 17.2035 8.99999 17.4687 8.99999ZM14.4687 8.99999C14.6665 8.99999 14.8599 8.94134 15.0243 8.83146C15.1888 8.72158 15.3169 8.5654 15.3926 8.38267C15.4683 8.19995 15.4881 7.99888 15.4495 7.8049C15.4109 7.61092 15.3157 7.43274 15.1758 7.29288C15.036 7.15303 14.8578 7.05779 14.6638 7.0192C14.4699 6.98062 14.2688 7.00042 14.0861 7.07611C13.9033 7.1518 13.7472 7.27997 13.6373 7.44442C13.5274 7.60887 13.4687 7.80221 13.4687 7.99999C13.4687 8.13131 13.4946 8.26135 13.5449 8.38267C13.5951 8.504 13.6688 8.61424 13.7616 8.7071C13.8545 8.79996 13.9647 8.87361 14.0861 8.92387C14.2074 8.97412 14.3374 8.99999 14.4687 8.99999ZM18.9087 13C18.6887 13 18.4587 12.93 18.2387 12.88C17.7932 12.7818 17.3554 12.6515 16.9287 12.49C16.4648 12.3212 15.9549 12.33 15.4971 12.5146C15.0392 12.6992 14.6658 13.0466 14.4487 13.49L14.2287 13.94C13.2532 13.3958 12.3552 12.7231 11.5587 11.94C10.7794 11.1439 10.1071 10.2497 9.55874 9.27999L9.99874 8.99999C10.4421 8.78291 10.7895 8.40952 10.9741 7.95168C11.1587 7.49384 11.1675 6.9839 10.9987 6.51999C10.84 6.09241 10.7097 5.65479 10.6087 5.20999C10.5587 4.97999 10.5187 4.75999 10.4887 4.52999C10.3673 3.82561 9.99837 3.18773 9.44836 2.73123C8.89836 2.27473 8.20344 2.0296 7.48874 2.03999H4.48874C4.06599 2.03944 3.64789 2.12824 3.26186 2.30057C2.87583 2.47291 2.53058 2.72489 2.24874 3.03999C1.96243 3.36249 1.74902 3.74292 1.62304 4.15536C1.49706 4.5678 1.46149 5.00256 1.51874 5.42999C2.04545 9.61703 3.95112 13.5096 6.93514 16.4936C9.91916 19.4776 13.8117 21.3833 17.9987 21.91C18.1286 21.9199 18.2589 21.9199 18.3887 21.91C19.1844 21.91 19.9475 21.5939 20.5101 21.0313C21.0727 20.4687 21.3887 19.7056 21.3887 18.91V15.91C21.3784 15.2122 21.125 14.5399 20.6724 14.0087C20.2197 13.4776 19.5961 13.1209 18.9087 13ZM19.3987 19C19.4004 19.1449 19.3705 19.2885 19.3111 19.4208C19.2518 19.553 19.1644 19.6708 19.055 19.7659C18.9456 19.861 18.8168 19.9312 18.6776 19.9717C18.5384 20.0121 18.3921 20.0217 18.2487 20C14.5149 19.5128 11.0458 17.8081 8.37874 15.15C5.71374 12.4648 4.01199 8.97343 3.53874 5.21999C3.51702 5.07332 3.52818 4.92366 3.57142 4.78184C3.61466 4.64002 3.68889 4.50959 3.78874 4.39999C3.88133 4.29458 3.99507 4.20983 4.12256 4.15125C4.25006 4.09267 4.38845 4.06158 4.52874 4.05999H7.52874C7.76129 4.05482 7.98837 4.13087 8.17089 4.27506C8.35341 4.41925 8.47995 4.62256 8.52874 4.84999C8.56874 5.12332 8.61874 5.39332 8.67874 5.65999C8.79426 6.18713 8.948 6.70517 9.13874 7.20999L7.73874 7.85999C7.61904 7.91491 7.51137 7.99294 7.4219 8.08959C7.33244 8.18624 7.26294 8.2996 7.21741 8.42318C7.17188 8.54677 7.15121 8.67812 7.15659 8.80971C7.16197 8.9413 7.19328 9.07054 7.24874 9.18999C8.68794 12.2727 11.166 14.7508 14.2487 16.19C14.4922 16.29 14.7653 16.29 15.0087 16.19C15.2569 16.0976 15.4583 15.9106 15.5687 15.67L16.1987 14.27C16.7157 14.4549 17.2433 14.6085 17.7787 14.73C18.0387 14.79 18.3187 14.84 18.5887 14.88C18.8143 14.9308 19.0153 15.0582 19.1575 15.2405C19.2998 15.4229 19.3744 15.6488 19.3687 15.88L19.3987 19Z" fill="#2A2B2E"/>
</svg>
