<svg width="24" height="24" viewBox="0 0 24 24" fill="none" xmlns="http://www.w3.org/2000/svg">
<path d="M20.5 18.5V18H21H22C22.1326 18 22.2598 17.9473 22.3536 17.8536C22.4473 17.7598 22.5 17.6326 22.5 17.5V12.5053C22.4987 12.4551 22.4899 12.4054 22.4738 12.3579L22.4311 12.2794L22.4113 12.2433L22.3978 12.2044C22.3955 12.1979 22.3927 12.1916 22.3892 12.1856L20 9C19.7671 8.68951 19.4652 8.4375 19.118 8.26393C18.7709 8.09036 18.3881 8 18 8H16H15.5V7.5V5.5C15.5 4.83696 15.2366 4.20107 14.7678 3.73223C14.2989 3.26339 13.663 3 13 3H4C3.33696 3 2.70107 3.26339 2.23223 3.73223C1.76339 4.20107 1.5 4.83696 1.5 5.5V17.5C1.5 17.6326 1.55268 17.7598 1.64645 17.8536C1.74021 17.9473 1.86739 18 2 18H3H3.5V18.5C3.5 19.163 3.76339 19.7989 4.23223 20.2678C4.70107 20.7366 5.33696 21 6 21C6.66304 21 7.29893 20.7366 7.76777 20.2678C8.23661 19.7989 8.5 19.163 8.5 18.5V18H9H15H15.5V18.5C15.5 19.163 15.7634 19.7989 16.2322 20.2678C16.7011 20.7366 17.337 21 18 21C18.663 21 19.2989 20.7366 19.7678 20.2678C20.2366 19.7989 20.5 19.163 20.5 18.5ZM3 17H2.5V16.5V5.5C2.5 5.10218 2.65803 4.72065 2.93934 4.43934C3.22064 4.15804 3.60217 4 4 4H13C13.3978 4 13.7794 4.15804 14.0607 4.43934C14.342 4.72064 14.5 5.10217 14.5 5.5V16.5V17H14H8.22H7.99879L7.85 16.8363C7.61568 16.5785 7.33007 16.3725 7.01149 16.2316C6.6929 16.0906 6.34837 16.0178 6 16.0178C5.65163 16.0178 5.3071 16.0906 4.98851 16.2316C4.66993 16.3725 4.38432 16.5785 4.15 16.8363L4.00121 17H3.78H3ZM16 12H15.5V11.5V9.5V9H16H18C18.2329 9 18.4625 9.05422 18.6708 9.15836C18.8791 9.2625 19.0603 9.4137 19.2 9.6L20.4 11.2L21 12H20H16ZM21 13H21.5V13.5V16.5V17H21H20.22H19.9987L19.8499 16.8361C19.4064 16.3478 18.788 16.0546 18.1293 16.0202C17.4706 15.9859 16.825 16.2133 16.3332 16.6528L15.5 17.3974V16.28V13.5V13H16H21ZM7.24721 17.6666C7.41203 17.9133 7.5 18.2033 7.5 18.5C7.5 18.8978 7.34197 19.2794 7.06066 19.5607C6.77936 19.842 6.39782 20 6 20C5.70333 20 5.41332 19.912 5.16665 19.7472C4.91997 19.5824 4.72771 19.3481 4.61418 19.074C4.50065 18.7999 4.47094 18.4983 4.52882 18.2074C4.5867 17.9164 4.72956 17.6491 4.93934 17.4393C5.14912 17.2296 5.41639 17.0867 5.70736 17.0288C5.99833 16.9709 6.29993 17.0006 6.57402 17.1142C6.84811 17.2277 7.08238 17.42 7.24721 17.6666ZM19.2472 17.6666C19.412 17.9133 19.5 18.2033 19.5 18.5C19.5 18.8978 19.342 19.2794 19.0607 19.5607C18.7794 19.842 18.3978 20 18 20C17.7033 20 17.4133 19.912 17.1666 19.7472C16.92 19.5824 16.7277 19.3481 16.6142 19.074C16.5006 18.7999 16.4709 18.4983 16.5288 18.2074C16.5867 17.9164 16.7296 17.6491 16.9393 17.4393C17.1491 17.2296 17.4164 17.0867 17.7074 17.0288C17.9983 16.9709 18.2999 17.0006 18.574 17.1142C18.8481 17.2277 19.0824 17.42 19.2472 17.6666Z" fill="#1B1C1E" stroke="#1B1C1E"/>
</svg>
