<svg width="24" height="24" viewBox="0 0 24 24" fill="none" xmlns="http://www.w3.org/2000/svg">
<path d="M20.4888 7.52002C20.4832 7.49366 20.4832 7.46638 20.4888 7.44002C20.484 7.41694 20.484 7.3931 20.4888 7.37002V7.28002L20.4288 7.13002C20.4045 7.08909 20.3741 7.05202 20.3388 7.02002L20.2488 6.94002H20.1988L16.2588 4.45002L12.5388 2.15002C12.4528 2.08175 12.3543 2.03081 12.2488 2.00002H12.1688C12.0795 1.9851 11.9882 1.9851 11.8988 2.00002H11.7988C11.6827 2.02571 11.5713 2.06959 11.4688 2.13002L3.99885 6.78002L3.90885 6.85002L3.81885 6.93002L3.71885 7.00002L3.66885 7.06002L3.60885 7.21002V7.30002V7.36002C3.59913 7.42633 3.59913 7.49371 3.60885 7.56002V16.29C3.60851 16.46 3.65148 16.6272 3.73372 16.7759C3.81595 16.9246 3.93473 17.0499 4.07885 17.14L11.5788 21.78L11.7288 21.84H11.8088C11.978 21.8937 12.1597 21.8937 12.3288 21.84H12.4088L12.5588 21.78L19.9988 17.21C20.143 17.1199 20.2617 16.9946 20.344 16.8459C20.4262 16.6972 20.4692 16.53 20.4688 16.36V7.63002C20.4688 7.63002 20.4888 7.56002 20.4888 7.52002ZM11.9988 4.17002L13.7788 5.27002L8.18885 8.73002L6.39885 7.63002L11.9988 4.17002ZM10.9988 19.17L5.49885 15.81V9.42002L10.9988 12.82V19.17ZM11.9988 11.06L10.0888 9.91002L15.6788 6.44002L17.5988 7.63002L11.9988 11.06ZM18.4988 15.78L12.9988 19.2V12.82L18.4988 9.42002V15.78Z" fill="#1B1C1E"/>
</svg>
