<svg width="24" height="24" viewBox="0 0 24 24" fill="none" xmlns="http://www.w3.org/2000/svg">
<path fill-rule="evenodd" clip-rule="evenodd" d="M4.55476 5.99294L10.7393 16.2027C11.1356 16.0712 11.5595 16 12 16C12.8464 16 13.6313 16.2629 14.2777 16.7114L22.5631 12.1202L23.5324 13.8696L15.6042 18.2631C15.8578 18.7884 16 19.3776 16 20C16 22.2091 14.2091 24 12 24C9.79086 24 8 22.2091 8 20C8 18.9548 8.40088 18.0032 9.05727 17.2907L3.42782 7.99294H0V5.99294H4.55476ZM12 18C10.8954 18 10 18.8954 10 20C10 21.1046 10.8954 22 12 22C13.1046 22 14 21.1046 14 20C14 18.8954 13.1046 18 12 18ZM16.5263 0L22.0263 9.52628L12.5 15.0263L10.271 11.165L10.2499 11.1774L9.654 10.096L7 5.5L16.5263 0ZM18.154 6.82L12.023 10.199L13.2321 12.2942L19.2942 8.79423L18.154 6.82ZM15.7942 2.73205L9.73205 6.23205L11.022 8.467L17.154 5.088L15.7942 2.73205Z" fill="#242424"/>
</svg>
