<svg width="24" height="24" viewBox="0 0 24 24" fill="none" xmlns="http://www.w3.org/2000/svg">
<path d="M20.3815 7.14967C20.3713 6.60969 20.3615 6.09959 20.3615 5.6061C20.3615 5.21949 20.0481 4.90605 19.6614 4.90605C16.6675 4.90605 14.3881 4.04564 12.488 2.19825C12.2162 1.93391 11.7837 1.934 11.512 2.19825C9.61214 4.04564 7.33305 4.90605 4.33935 4.90605C3.95274 4.90605 3.6393 5.21949 3.6393 5.6061C3.6393 6.09968 3.62959 6.60997 3.61923 7.15004C3.52328 12.1751 3.39186 19.0572 11.7707 21.9614C11.845 21.9872 11.9225 22.0001 12 22.0001C12.0774 22.0001 12.155 21.9872 12.2292 21.9614C20.6087 19.0571 20.4775 12.1748 20.3815 7.14967ZM12.0001 20.5571C4.81408 17.9467 4.92273 12.2282 5.01915 7.17674C5.02494 6.87357 5.03054 6.57973 5.03446 6.29168C7.8384 6.17333 10.0806 5.32365 12.0001 3.65156C13.9197 5.32365 16.1623 6.17342 18.9664 6.29168C18.9703 6.57964 18.9759 6.87329 18.9817 7.17627C19.078 12.2279 19.1866 17.9466 12.0001 20.5571Z" fill="black"/>
<path d="M14.4102 9.56822L11.0314 12.9469L9.58954 11.505C9.31615 11.2317 8.87288 11.2317 8.59958 11.505C8.32618 11.7785 8.32618 12.2217 8.59958 12.4951L10.5364 14.4319C10.673 14.5686 10.8522 14.6369 11.0314 14.6369C11.2105 14.6369 11.3897 14.5686 11.5264 14.4319L15.4001 10.5583C15.6735 10.2849 15.6735 9.84161 15.4002 9.56831C15.1269 9.29492 14.6836 9.29483 14.4102 9.56822Z" fill="black"/>
</svg>
