<svg width="24" height="24" viewBox="0 0 24 24" fill="none" xmlns="http://www.w3.org/2000/svg">
<path d="M17.5 7V7.5H18H19C19.663 7.5 20.2989 7.76339 20.7678 8.23223C21.2366 8.70107 21.5 9.33696 21.5 10V18C21.5 18.663 21.2366 19.2989 20.7678 19.7678C20.2989 20.2366 19.663 20.5 19 20.5H5C4.33696 20.5 3.70107 20.2366 3.23223 19.7678C2.76339 19.2989 2.5 18.663 2.5 18V6C2.5 5.33696 2.76339 4.70107 3.23223 4.23223C3.70107 3.76339 4.33696 3.5 5 3.5H15C15.663 3.5 16.2989 3.76339 16.7678 4.23223C17.2366 4.70107 17.5 5.33696 17.5 6V7ZM16 7.5H16.5V7V6C16.5 5.60217 16.342 5.22064 16.0607 4.93934C15.7794 4.65804 15.3978 4.5 15 4.5H5C4.60217 4.5 4.22064 4.65804 3.93934 4.93934C3.65804 5.22064 3.5 5.60217 3.5 6C3.5 6.39783 3.65804 6.77936 3.93934 7.06066C4.22064 7.34196 4.60217 7.5 5 7.5H16ZM20 15.5H20.5V15V13V12.5H20H19C18.6022 12.5 18.2206 12.658 17.9393 12.9393C17.658 13.2206 17.5 13.6022 17.5 14C17.5 14.3978 17.658 14.7794 17.9393 15.0607C18.2206 15.342 18.6022 15.5 19 15.5H20ZM20 11.5H20.5V11V10C20.5 9.60218 20.342 9.22064 20.0607 8.93934C19.7794 8.65804 19.3978 8.5 19 8.5L5 8.5L4.99926 8.5C4.71545 8.50042 4.43365 8.45251 4.16593 8.35833L3.5 8.12407V8.83V18C3.5 18.3978 3.65804 18.7794 3.93934 19.0607C4.22065 19.342 4.60218 19.5 5 19.5H19C19.3978 19.5 19.7794 19.342 20.0607 19.0607C20.342 18.7794 20.5 18.3978 20.5 18V17V16.5H20H19C18.337 16.5 17.7011 16.2366 17.2322 15.7678C16.7634 15.2989 16.5 14.663 16.5 14C16.5 13.337 16.7634 12.7011 17.2322 12.2322C17.7011 11.7634 18.337 11.5 19 11.5H20Z" fill="white" stroke="#2A2B2E"/>
</svg>
