<svg width="24" height="24" viewBox="0 0 24 24" fill="none" xmlns="http://www.w3.org/2000/svg">
<circle cx="12" cy="12" r="9" stroke="#2A2B2E" stroke-width="1.8"/>
<path d="M10.4585 9.94112C10.4585 9.34702 10.9155 8.97489 11.5358 8.90307V10.9988C11.4705 10.9857 11.4117 10.9661 11.353 10.9465C10.7588 10.7507 10.4585 10.4112 10.4585 9.94112ZM13.7228 14.015C13.7228 14.6548 13.2332 15.0792 12.5412 15.1379V12.8855C12.5869 12.8986 12.6326 12.9116 12.6717 12.9182C13.4029 13.1206 13.7228 13.4796 13.7228 14.015ZM12.5542 17.3772L12.5477 16.5481C14.3365 16.3783 15.4725 15.3925 15.4725 13.8387C15.4725 12.2588 14.4083 11.5929 13.0961 11.3121L12.5412 11.1946V8.91613C13.2332 9.02712 13.6184 9.54941 13.638 10.0717H15.3093C15.2832 8.71374 14.219 7.68222 12.5673 7.50595V6.65723H11.5096V7.49942C9.92971 7.64305 8.68928 8.51136 8.68928 10.0782C8.68928 11.5602 9.75997 12.3175 10.9743 12.5852L11.5358 12.7093V15.1379C10.7001 15.0269 10.2627 14.5242 10.23 13.9236H8.51953C8.53259 15.1314 9.34214 16.4045 11.5031 16.5611L11.4966 17.3772H12.5542Z" fill="#2A2B2E"/>
</svg>
