<svg width="176" height="176" viewBox="0 0 176 176" fill="none" xmlns="http://www.w3.org/2000/svg">
<circle cx="88" cy="88" r="88" fill="#FFF9E7"/>
<path d="M34.5632 158.156C28.0962 160.366 21.6976 163.002 15.5259 166C16.1817 162.183 16.969 158.339 17.8705 154.554L17.9847 154.075L17.5548 153.837C14.1323 151.941 10.5878 150.13 7 148.444C11.3901 146.31 15.8994 144.344 20.4273 142.567L24.521 153.181L24.5215 153.181C24.522 153.182 24.5221 153.184 24.5225 153.185C25.3461 155.278 29.0795 155.229 32.3445 154.1C34.7593 153.26 36.8055 153.384 37.7637 153.877C38.1011 154.05 38.3088 154.263 38.3821 154.511L38.3826 154.512C38.7555 155.766 37.186 157.264 34.5632 158.156ZM37.7829 152.538C36.2782 152.018 34.1262 152.111 31.9233 152.875C28.7437 153.977 26.1043 153.673 25.7231 152.711L25.7222 152.709C25.5937 152.378 25.6204 152.007 25.8035 151.606C26.2814 150.556 27.723 149.522 29.659 148.838C31.7679 148.095 33.8928 147.41 36.0243 146.75L37.7829 152.538ZM29.2315 147.616C27.1783 148.341 25.6675 149.381 24.9004 150.578L18.2319 133.289C18.1193 133.001 18.1476 132.668 18.3145 132.301C18.8357 131.157 20.5104 129.992 22.7936 129.185C65.1655 114.272 111.836 114.272 154.205 129.185C156.488 129.991 158.163 131.156 158.685 132.3C158.853 132.668 158.88 133.001 158.767 133.292L152.1 150.577C151.332 149.38 149.821 148.341 147.769 147.616C109.55 134.163 67.4526 134.165 29.2315 147.616ZM147.341 148.838C149.278 149.522 150.719 150.556 151.197 151.606C151.38 152.008 151.407 152.379 151.278 152.709L151.277 152.71C150.898 153.672 148.259 153.976 145.077 152.876C142.903 152.12 140.738 151.984 139.235 152.482L140.976 146.75C143.108 147.41 145.232 148.095 147.341 148.838ZM159.445 153.837L159.015 154.075L159.13 154.554C160.033 158.348 160.82 162.191 161.473 166C155.302 163.002 148.905 160.366 142.436 158.156C139.813 157.264 138.243 155.765 138.619 154.51C138.692 154.264 138.899 154.051 139.236 153.877C140.197 153.385 142.242 153.26 144.656 154.1C147.919 155.229 151.655 155.277 152.477 153.184C152.478 153.183 152.478 153.182 152.478 153.181L152.479 153.181L156.573 142.567C161.097 144.343 165.608 146.309 170 148.444C166.411 150.13 162.867 151.941 159.445 153.837Z" fill="#27AE60"/>
<path d="M82.7852 18.7073C85.9074 16.4877 90.0926 16.4876 93.2148 18.7073L94.6068 19.6969C96.9016 21.3284 99.8277 21.7918 102.514 20.9493L104.144 20.4383C107.799 19.2921 111.78 20.5854 114.063 23.6613L115.081 25.0325C116.76 27.2933 119.399 28.6383 122.215 28.6673L123.923 28.6849C127.753 28.7243 131.139 31.1843 132.36 34.8152L132.905 36.434C133.802 39.1028 135.897 41.1976 138.566 42.0952L140.185 42.6397C143.816 43.861 146.276 47.2468 146.315 51.0774L146.333 52.7852C146.362 55.6007 147.707 58.2404 149.967 59.9188L151.339 60.9368C154.415 63.2203 155.708 67.2006 154.562 70.856L154.051 72.4856C153.208 75.1723 153.672 78.0984 155.303 80.3932L156.293 81.7852C158.512 84.9074 158.512 89.0926 156.293 92.2148L155.303 93.6068C153.672 95.9016 153.208 98.8277 154.051 101.514L154.562 103.144C155.708 106.799 154.415 110.78 151.339 113.063L149.967 114.081C147.707 115.76 146.362 118.399 146.333 121.215L146.315 122.923C146.276 126.753 143.816 130.139 140.185 131.36L138.566 131.905C135.897 132.802 133.802 134.897 132.905 137.566L132.36 139.185C131.139 142.816 127.753 145.276 123.923 145.315L122.215 145.333C119.399 145.362 116.76 146.707 115.081 148.967L114.063 150.339C111.78 153.415 107.799 154.708 104.144 153.562L102.514 153.051C99.8277 152.208 96.9016 152.672 94.6068 154.303L93.2148 155.293C90.0926 157.512 85.9074 157.512 82.7852 155.293L81.3932 154.303C79.0984 152.672 76.1723 152.208 73.4856 153.051L71.856 153.562C68.2006 154.708 64.2203 153.415 61.9368 150.339L60.9188 148.967C59.2404 146.707 56.6007 145.362 53.7852 145.333L52.0774 145.315C48.2468 145.276 44.861 142.816 43.6397 139.185L43.0952 137.566C42.1976 134.897 40.1028 132.802 37.434 131.905L35.8152 131.36C32.1843 130.139 29.7243 126.753 29.6849 122.923L29.6673 121.215C29.6383 118.399 28.2933 115.76 26.0325 114.081L24.6613 113.063C21.5854 110.78 20.2921 106.799 21.4383 103.144L21.9493 101.514C22.7918 98.8277 22.3284 95.9016 20.6969 93.6068L19.7073 92.2148C17.4877 89.0926 17.4876 84.9074 19.7073 81.7852L20.6969 80.3932C22.3284 78.0984 22.7918 75.1723 21.9493 72.4856L21.4383 70.856C20.2921 67.2006 21.5854 63.2203 24.6613 60.9368L26.0325 59.9188C28.2933 58.2404 29.6383 55.6007 29.6673 52.7852L29.6849 51.0774C29.7243 47.2468 32.1843 43.861 35.8152 42.6397L37.434 42.0952C40.1028 41.1976 42.1976 39.1028 43.0952 36.434L43.6397 34.8152C44.861 31.1843 48.2468 28.7243 52.0774 28.6849L53.7852 28.6673C56.6007 28.6383 59.2404 27.2933 60.9188 25.0325L61.9368 23.6613C64.2203 20.5854 68.2006 19.2921 71.856 20.4383L73.4856 20.9493C76.1723 21.7918 79.0984 21.3284 81.3932 19.6969L82.7852 18.7073Z" fill="#F8CB2D"/>
<g filter="url(#filter0_b)">
<path d="M82.6362 26.8133C85.8476 24.5302 90.1524 24.5302 93.3638 26.8133C95.7242 28.4913 98.734 28.968 101.497 28.1015C105.257 26.9225 109.351 28.2528 111.7 31.4165C113.426 33.7419 116.141 35.1253 119.037 35.1551C122.978 35.1957 126.46 37.726 127.716 41.4607C128.64 44.2057 130.794 46.3604 133.539 47.2837C137.274 48.5399 139.804 52.0224 139.845 55.9625C139.875 58.8585 141.258 61.5736 143.583 63.3C146.747 65.6487 148.077 69.7428 146.898 73.5026C146.032 76.266 146.509 79.2758 148.187 81.6362C150.47 84.8476 150.47 89.1524 148.187 92.3638C146.509 94.7242 146.032 97.734 146.898 100.497C148.077 104.257 146.747 108.351 143.583 110.7C141.258 112.426 139.875 115.141 139.845 118.037C139.804 121.978 137.274 125.46 133.539 126.716C130.794 127.64 128.64 129.794 127.716 132.539C126.46 136.274 122.978 138.804 119.037 138.845C116.141 138.875 113.426 140.258 111.7 142.583C109.351 145.747 105.257 147.077 101.497 145.898C98.734 145.032 95.7242 145.509 93.3638 147.187C90.1524 149.47 85.8476 149.47 82.6362 147.187C80.2758 145.509 77.266 145.032 74.5026 145.898C70.7428 147.077 66.6487 145.747 64.3 142.583C62.5736 140.258 59.8585 138.875 56.9625 138.845C53.0224 138.804 49.5399 136.274 48.2837 132.539C47.3604 129.794 45.2057 127.64 42.4607 126.716C38.726 125.46 36.1957 121.978 36.1551 118.037C36.1253 115.141 34.7419 112.426 32.4165 110.7C29.2528 108.351 27.9225 104.257 29.1015 100.497C29.968 97.734 29.4913 94.7242 27.8133 92.3638C25.5302 89.1524 25.5302 84.8476 27.8133 81.6362C29.4913 79.2758 29.968 76.266 29.1015 73.5026C27.9225 69.7428 29.2528 65.6487 32.4165 63.3C34.7419 61.5736 36.1253 58.8585 36.1551 55.9625C36.1957 52.0224 38.726 48.5399 42.4607 47.2837C45.2057 46.3604 47.3604 44.2057 48.2837 41.4607C49.5399 37.726 53.0224 35.1957 56.9625 35.1551C59.8585 35.1253 62.5736 33.7419 64.3 31.4165C66.6487 28.2528 70.7428 26.9225 74.5026 28.1015C77.266 28.968 80.2758 28.4913 82.6362 26.8133Z" fill="white" fill-opacity="0.4"/>
</g>
<g filter="url(#filter1_b)">
<path d="M83.3905 35.277C86.1503 33.315 89.8497 33.315 92.6095 35.277C94.638 36.7191 97.2245 37.1288 99.5994 36.3841C102.83 35.3709 106.349 36.5141 108.367 39.2329C109.851 41.2313 112.184 42.4202 114.673 42.4458C118.059 42.4807 121.052 44.6551 122.131 47.8646C122.925 50.2236 124.776 52.0754 127.135 52.8688C130.345 53.9483 132.519 56.9412 132.554 60.3272C132.58 62.8159 133.769 65.1492 135.767 66.6328C138.486 68.6513 139.629 72.1696 138.616 75.4006C137.871 77.7755 138.281 80.362 139.723 82.3905C141.685 85.1503 141.685 88.8497 139.723 91.6095C138.281 93.638 137.871 96.2245 138.616 98.5994C139.629 101.83 138.486 105.349 135.767 107.367C133.769 108.851 132.58 111.184 132.554 113.673C132.519 117.059 130.345 120.052 127.135 121.131C124.776 121.925 122.925 123.776 122.131 126.135C121.052 129.345 118.059 131.519 114.673 131.554C112.184 131.58 109.851 132.769 108.367 134.767C106.349 137.486 102.83 138.629 99.5994 137.616C97.2245 136.871 94.638 137.281 92.6095 138.723C89.8497 140.685 86.1503 140.685 83.3905 138.723C81.362 137.281 78.7755 136.871 76.4006 137.616C73.1696 138.629 69.6513 137.486 67.6328 134.767C66.1492 132.769 63.8159 131.58 61.3272 131.554C57.9412 131.519 54.9483 129.345 53.8688 126.135C53.0754 123.776 51.2236 121.925 48.8646 121.131C45.6551 120.052 43.4807 117.059 43.4458 113.673C43.4202 111.184 42.2313 108.851 40.2329 107.367C37.5141 105.349 36.3709 101.83 37.3841 98.5994C38.1288 96.2245 37.7191 93.638 36.277 91.6095C34.315 88.8497 34.315 85.1503 36.277 82.3905C37.7191 80.362 38.1288 77.7755 37.3841 75.4006C36.3709 72.1696 37.5141 68.6513 40.2329 66.6328C42.2313 65.1492 43.4202 62.8159 43.4458 60.3272C43.4807 56.9412 45.6551 53.9483 48.8646 52.8688C51.2236 52.0754 53.0754 50.2236 53.8688 47.8646C54.9483 44.6551 57.9412 42.4807 61.3272 42.4458C63.8159 42.4202 66.1492 41.2313 67.6328 39.2329C69.6513 36.5141 73.1696 35.3709 76.4006 36.3841C78.7755 37.1288 81.362 36.7191 83.3905 35.277Z" fill="white" fill-opacity="0.4"/>
</g>
<path d="M65.2442 68.3636H61.3418L56.4807 71.4414V75.1232L60.9775 72.3043H61.0925V88H65.2442V68.3636ZM77.3404 88.4315C82.2782 88.4315 85.2601 84.6729 85.2697 78.201C85.2793 71.777 82.2591 68.0952 77.3404 68.0952C72.4121 68.0952 69.4206 71.7674 69.4111 78.201C69.3919 84.6538 72.3929 88.4219 77.3404 88.4315ZM77.3404 84.9893C75.0872 84.9893 73.6298 82.7266 73.6394 78.201C73.649 73.7425 75.0968 71.4989 77.3404 71.4989C79.5744 71.4989 81.0318 73.7425 81.0318 78.201C81.0414 82.7266 79.584 84.9893 77.3404 84.9893ZM95.6593 88.4315C100.597 88.4315 103.579 84.6729 103.589 78.201C103.598 71.777 100.578 68.0952 95.6593 68.0952C90.731 68.0952 87.7395 71.7674 87.7299 78.201C87.7107 84.6538 90.7118 88.4219 95.6593 88.4315ZM95.6593 84.9893C93.4061 84.9893 91.9487 82.7266 91.9583 78.201C91.9678 73.7425 93.4156 71.4989 95.6593 71.4989C97.8933 71.4989 99.3507 73.7425 99.3507 78.201C99.3602 82.7266 97.9029 84.9893 95.6593 84.9893ZM117.027 84.3182C117.037 86.6768 118.542 88.6808 121.351 88.6808C124.132 88.6808 125.685 86.6768 125.676 84.3182V83.2827C125.685 80.9048 124.17 78.9201 121.351 78.9201C118.58 78.9201 117.037 80.924 117.027 83.2827V84.3182ZM106.95 73.081C106.96 75.4396 108.465 77.4244 111.265 77.4244C114.055 77.4244 115.608 75.4588 115.599 73.081V72.0455C115.608 69.6676 114.093 67.6829 111.265 67.6829C108.523 67.6829 106.96 69.6676 106.95 72.0455V73.081ZM107.89 88H110.392L123.892 68.3636H121.39L107.89 88ZM119.817 83.2827C119.827 82.343 120.201 81.3746 121.351 81.3746C122.559 81.3746 122.876 82.343 122.866 83.2827V84.3182C122.876 85.2578 122.521 86.207 121.351 86.207C120.182 86.207 119.827 85.229 119.817 84.3182V83.2827ZM109.759 72.0455C109.769 71.1346 110.124 70.1374 111.265 70.1374C112.473 70.1374 112.799 71.1058 112.789 72.0455V73.081C112.799 74.0206 112.434 74.9698 111.265 74.9698C110.133 74.9698 109.769 74.0206 109.759 73.081V72.0455Z" fill="#2A2B2E"/>
<path d="M59.8786 100H63.6073C65.5675 100 66.6116 98.9773 66.6116 97.5881C66.6116 96.2969 65.6868 95.517 64.6939 95.4702V95.3849C65.6016 95.1804 66.2706 94.5369 66.2706 93.5099C66.2706 92.2017 65.2991 91.2727 63.3729 91.2727H59.8786V100ZM61.7238 98.4915V96.1733H63.2706C64.157 96.1733 64.7067 96.6847 64.7067 97.4048C64.7067 98.0611 64.2593 98.4915 63.228 98.4915H61.7238ZM61.7238 94.9247V92.7642H63.1258C63.9439 92.7642 64.4084 93.1861 64.4084 93.8168C64.4084 94.5071 63.8459 94.9247 63.0917 94.9247H61.7238ZM77.1521 95.6364C77.1521 92.7812 75.3794 91.1534 73.0654 91.1534C70.7387 91.1534 68.9788 92.7812 68.9788 95.6364C68.9788 98.4787 70.7387 100.119 73.0654 100.119C75.3794 100.119 77.1521 98.4915 77.1521 95.6364ZM75.2813 95.6364C75.2813 97.4858 74.4035 98.4872 73.0654 98.4872C71.7231 98.4872 70.8495 97.4858 70.8495 95.6364C70.8495 93.7869 71.7231 92.7855 73.0654 92.7855C74.4035 92.7855 75.2813 93.7869 75.2813 95.6364ZM83.0136 100.119C84.9739 100.119 86.3758 99.0412 86.3716 97.5497C86.3758 96.4631 85.6855 95.6875 84.4028 95.5256V95.4574C85.3787 95.2827 86.052 94.5923 86.0477 93.6122C86.052 92.2358 84.846 91.1534 83.0392 91.1534C81.2494 91.1534 79.9028 92.2017 79.8773 93.7102H81.6457C81.667 93.0455 82.2764 92.6151 83.0307 92.6151C83.7764 92.6151 84.275 93.0668 84.2707 93.723C84.275 94.4091 83.6912 94.8736 82.8517 94.8736H82.0378V96.2287H82.8517C83.8403 96.2287 84.4582 96.723 84.454 97.4261C84.4582 98.1207 83.8616 98.598 83.0179 98.598C82.204 98.598 81.5946 98.1719 81.5605 97.5327H79.7025C79.7324 99.0582 81.096 100.119 83.0136 100.119ZM89.0691 100H92.7978C94.758 100 95.802 98.9773 95.802 97.5881C95.802 96.2969 94.8773 95.517 93.8844 95.4702V95.3849C94.7921 95.1804 95.4611 94.5369 95.4611 93.5099C95.4611 92.2017 94.4895 91.2727 92.5634 91.2727H89.0691V100ZM90.9142 98.4915V96.1733H92.4611C93.3475 96.1733 93.8972 96.6847 93.8972 97.4048C93.8972 98.0611 93.4498 98.4915 92.4185 98.4915H90.9142ZM90.9142 94.9247V92.7642H92.3162C93.1344 92.7642 93.5989 93.1861 93.5989 93.8168C93.5989 94.5071 93.0364 94.9247 92.2821 94.9247H90.9142ZM98.3227 100H100.168V97.1705H101.719C103.726 97.1705 104.894 95.973 104.894 94.2301C104.894 92.4957 103.747 91.2727 101.766 91.2727H98.3227V100ZM100.168 95.6918V92.7812H101.412C102.477 92.7812 102.993 93.3608 102.993 94.2301C102.993 95.0952 102.477 95.6918 101.421 95.6918H100.168ZM107.909 100L108.556 98.0099H111.706L112.353 100H114.331L111.322 91.2727H108.944L105.931 100H107.909ZM109.025 96.5696L110.099 93.267H110.167L111.241 96.5696H109.025ZM115.29 92.794H117.962V100H119.786V92.794H122.458V91.2727H115.29V92.794Z" fill="#2A2B2E"/>
<defs>
<filter id="filter0_b" x="6.10059" y="5.10095" width="163.798" height="163.798" filterUnits="userSpaceOnUse" color-interpolation-filters="sRGB">
<feFlood flood-opacity="0" result="BackgroundImageFix"/>
<feGaussianBlur in="BackgroundImage" stdDeviation="10"/>
<feComposite in2="SourceAlpha" operator="in" result="effect1_backgroundBlur"/>
<feBlend mode="normal" in="SourceGraphic" in2="effect1_backgroundBlur" result="shape"/>
</filter>
<filter id="filter1_b" x="14.8057" y="13.8055" width="146.389" height="146.389" filterUnits="userSpaceOnUse" color-interpolation-filters="sRGB">
<feFlood flood-opacity="0" result="BackgroundImageFix"/>
<feGaussianBlur in="BackgroundImage" stdDeviation="10"/>
<feComposite in2="SourceAlpha" operator="in" result="effect1_backgroundBlur"/>
<feBlend mode="normal" in="SourceGraphic" in2="effect1_backgroundBlur" result="shape"/>
</filter>
</defs>
</svg>
