<?xml version="1.0" encoding="utf-8"?><!DOCTYPE svg PUBLIC "-//W3C//DTD SVG 1.1//EN" "http://www.w3.org/Graphics/SVG/1.1/DTD/svg11.dtd"><svg xmlns="http://www.w3.org/2000/svg" xmlns:xlink="http://www.w3.org/1999/xlink"><symbol viewBox="0 0 16 16" id="arrow" xmlns="http://www.w3.org/2000/svg"><path d="M10.477 7.527L7.144 4.193a.67.67 0 00-.947.947L9.064 8l-2.867 2.86a.667.667 0 00.217 1.093.666.666 0 00.73-.146l3.333-3.334a.666.666 0 000-.946z"/></symbol><symbol viewBox="0 0 16 16" id="arrow-right" xmlns="http://www.w3.org/2000/svg"><path d="M11.947 7.747a.668.668 0 00-.14-.22L8.473 4.193a.67.67 0 10-.946.947l2.2 2.193h-5.06a.667.667 0 100 1.334h5.06l-2.2 2.193a.667.667 0 00.217 1.093.666.666 0 00.73-.146l3.333-3.334a.668.668 0 00.14-.22.667.667 0 000-.506z"/><path fill-rule="evenodd" clip-rule="evenodd" d="M4.667 7.333a.667.667 0 100 1.334h5.06l-2.2 2.193a.667.667 0 00.217 1.093.666.666 0 00.73-.146l3.333-3.334a.669.669 0 00.17-.309.667.667 0 00-.068-.497.668.668 0 00-.102-.14L8.473 4.193a.67.67 0 10-.946.947l2.2 2.193h-5.06zm3.566 4.235z"/></symbol><symbol viewBox="0 0 20 20" id="bars" xmlns="http://www.w3.org/2000/svg"><path d="M.91 5.714h18.18c.503 0 .91-.426.91-.952s-.407-.952-.91-.952H.91c-.503 0-.91.426-.91.952s.407.952.91.952zM19.09 8.961H.91c-.503 0-.91.426-.91.952s.407.953.91.953h18.18c.503 0 .91-.427.91-.953s-.407-.952-.91-.952zM19.09 14.113H.91c-.503 0-.91.426-.91.952s.407.952.91.952h18.18c.503 0 .91-.426.91-.952s-.407-.952-.91-.952z"/></symbol><symbol viewBox="0 0 24 24" id="cart" xmlns="http://www.w3.org/2000/svg"><path d="M21 16H7a1 1 0 010-2h10.44a3 3 0 002.91-2.27L22 5.24a1 1 0 00-.18-.86A1 1 0 0021 4H6.76a3 3 0 00-2.82-2H3a1 1 0 000 2h.94a1 1 0 011 .76l.06.48L6.73 12A3.003 3.003 0 107 18h.18a3 3 0 105.64 0h2.36a3 3 0 105.64 0H21a1 1 0 000-2zM19.72 6l-1.31 5.24a1 1 0 01-1 .76H8.78l-1.5-6h12.44zM10 20a1 1 0 110-2 1 1 0 010 2zm8 0a1 1 0 110-2 1 1 0 010 2z"/><path fill-rule="evenodd" clip-rule="evenodd" d="M18.193 12.853a2 2 0 001.188-1.372v-.001L21 5h.028l-1.648 6.484v.003a2 2 0 01-1.188 1.366zM22 5.24l-1.65 6.49A3 3 0 0117.44 14H7a1 1 0 000 2h14a1 1 0 010 2h-.18A3.002 3.002 0 0118 22.023 3 3 0 0115.18 18h-2.36A3.002 3.002 0 0110 22.023a3 3 0 01-3-3.022A3.01 3.01 0 017.18 18H7a3.003 3.003 0 11-.27-6L5 5.24l-.06-.48a1 1 0 00-1-.76H3a1 1 0 010-2h.94a3 3 0 012.82 2H21a1 1 0 01.82.38 1 1 0 01.18.86zM5.937 4.671L6.053 5h-.054l1.2 4.802-1.215-4.749-.047-.382zm2.048 8.273L6.775 13a2.003 2.003 0 00.18 4.002L6.978 17H7a2 2 0 110-4h1l-.015-.056zM18.41 11.24L19.72 6H7.28l1.5 6h8.63a1 1 0 001-.76zM8.189 18.152A2 2 0 019.998 17H8.607l-.418 1.152zm-.189.86a2 2 0 104 0 2 2 0 01-4 0zm3.811-.86L11.393 17h-1.391a2.002 2.002 0 011.81 1.152zm4.378 0A1.999 1.999 0 0117.998 17h-1.391l-.418 1.152zm-.189.86a1.999 1.999 0 104 0 2 2 0 01-4 0zm3.811-.86L19.393 17h-1.391a2.002 2.002 0 011.81 1.152zm-10.367 1.68a1 1 0 101.111-1.663 1 1 0 00-1.11 1.662zm8 0a1 1 0 101.111-1.663 1 1 0 00-1.11 1.662z"/></symbol><symbol viewBox="0 0 16 12" id="checked" xmlns="http://www.w3.org/2000/svg"><path d="M14.709 1.21a1 1 0 00-1.42 0l-7.45 7.46-3.13-3.14A1.022 1.022 0 001.288 7l3.84 3.84a1 1 0 001.42 0l8.16-8.16a1 1 0 000-1.47z"/></symbol><symbol viewBox="0 0 121.981 121.982" id="compare" xmlns="http://www.w3.org/2000/svg"><path d="M112.091 47.393c9.1 1.6 9.6-11.8 1.4-11.9-9.9 0-18.801.5-27.2-5.1-5-3.3-10.101-5.8-15.7-6.9 1.7-2.1 2.7-4.7 2.7-7.6 0-6.6-5.4-12.1-12.4-11.9-6.8-.2-12.3 5.2-12.3 12 0 2.9 1 5.5 2.7 7.6-5.6 1.1-10.7 3.5-15.7 6.9-8.4 5.6-17.4 5.1-27.2 5.1-8.2 0-7.7 13.5 1.4 11.9l.1.1c-6.1 10-13.2 25.2-8.2 35.3 2.1 4.2 7 9.2 18.9 9.2 11.9 0 16.8-5 18.9-9.2 5.3-10.6-2.8-26.8-9-36.7 1.3-.3 2.5-.8 3.8-1.3 4.3-1.8 8-4.5 11.9-6.9 2.8-1.7 5.7-2.5 8.8-2.8v70.8h-14.9c-3.1 0-5.8 2.2-6.2 5.2-.4 3.6 2.4 6.8 6 6.8h42.101c3.6 0 6.399-3.101 6-6.8-.4-3-3.101-5.2-6.2-5.2h-14.9v-70.9c3 .3 6.101 1.1 8.9 2.8 3.899 2.4 7.6 5.1 11.899 6.9 1.2.5 2.5.9 3.801 1.3-6.2 9.9-14.301 26.101-9 36.7 2.1 4.2 7.1 9.2 18.899 9.2s16.8-5 18.9-9.2c5-10.1-2.101-25.3-8.2-35.3v-.1zM11.19 71.994c1.1-5.9 5.1-14 9.4-20.8 4.3 6.8 8.3 14.9 9.3 20.8h-18.7zm80.701 0c1.101-6 5.101-14 9.4-20.8 4.3 6.8 8.3 14.8 9.399 20.8H91.891z"/></symbol><symbol viewBox="0 0 24 24" id="location" xmlns="http://www.w3.org/2000/svg"><path fill-rule="evenodd" clip-rule="evenodd" d="M12 1.995c2.251 0 4.41.894 6 2.485a8.45 8.45 0 010 11.95l-5.31 5.33a1.002 1.002 0 01-1.42 0L6 16.48a8.485 8.485 0 016-14.485zm0 17.595L16.57 15a6.46 6.46 0 10-9.14 0L12 19.59z"/><path fill-rule="evenodd" clip-rule="evenodd" d="M18 16.43a8.45 8.45 0 000-11.95 8.485 8.485 0 00-12 12l5.27 5.28a1.002 1.002 0 001.42 0L18 16.43zm.322-9.957a7.45 7.45 0 01-1.028 9.25l-5.312 5.331-.001.002-5.272-5.282a7.488 7.488 0 01-.937-9.444 7.46 7.46 0 00.95 9.376l5.279 5.301 5.277-5.3.001-.001a7.46 7.46 0 001.043-9.233zM16.571 15a6.46 6.46 0 10-9.14 0L12 19.59 16.57 15z"/><path d="M14 10a2 2 0 11-4 0 2 2 0 014 0z"/></symbol><symbol viewBox="0 0 184 184" id="mail-alt" xmlns="http://www.w3.org/2000/svg"><path d="M160.746 24.61H23.254C10.432 24.61 0 35.042 0 47.864v88.271c0 12.822 10.432 23.254 23.254 23.254h137.492c12.822 0 23.254-10.432 23.254-23.254V47.864c0-12.822-10.432-23.254-23.254-23.254zm-3.633 15L92 89.909 26.887 39.61h130.226zm3.633 104.78H23.254c-4.551 0-8.254-3.703-8.254-8.254V49.382l72.415 55.94c1.35 1.043 2.968 1.564 4.585 1.564s3.235-.521 4.585-1.564L169 49.382v86.753c0 4.552-3.703 8.255-8.254 8.255z"/></symbol><symbol viewBox="0 0 417.398 417.398" id="phone-alt" xmlns="http://www.w3.org/2000/svg"><path d="M395.552 284.869l-41.993-34.404c-27.358-22.413-69.826-20.292-94.784 4.665l-1.667 1.667c-4.185 4.185-11.002 4.152-15.128.025l-81.135-81.135c-4.096-4.096-4.177-10.684-.23-14.867.072-.076.145-.151.219-.226l-.223.223.222-.223c24.82-25.058 27.195-67.722 5.453-95.21l-34.059-43.059c-21.892-27.678-59.94-29.816-84.895-4.861l-6.256 6.256c-44.325 44.325-54.77 124.215-21.522 177.332 0 0 19.572 45.39 85.622 111.44s111.44 85.622 111.44 85.622c53.613 32.438 132.98 22.83 177.295-21.485l5.958-5.958c24.974-24.974 23.023-63.404-4.317-85.802zm-25.854 55.632l-5.958 5.958c-30.424 30.424-88.22 37.426-125.038 15.15l-2.505-1.516-2.688-1.159c-3.3-1.423-11.572-5.908-24.078-14.296-22.211-14.898-47.153-35.382-74.086-62.315s-47.418-51.875-62.315-74.086c-8.388-12.506-12.874-20.778-14.296-24.078l-1.288-2.987-1.726-2.757c-22.385-35.762-15.168-93.83 15.526-124.524l6.256-6.256c6.937-6.937 15.231-6.465 21.263 1.161l34.059 43.059c8.398 10.617 7.311 29.101-2.381 38.794-20.618 20.859-20.516 54.462.233 75.21l81.135 81.135c20.799 20.799 54.632 20.811 75.469-.025l1.667-1.667c9.46-9.46 27.192-10.336 37.574-1.83l41.993 34.404c7.84 6.422 8.299 15.511 1.184 22.625z"/></symbol><symbol viewBox="0 0 512 512" id="search" xmlns="http://www.w3.org/2000/svg"><path d="M225.474 0C101.151 0 0 101.151 0 225.474c0 124.33 101.151 225.474 225.474 225.474 124.33 0 225.474-101.144 225.474-225.474C450.948 101.151 349.804 0 225.474 0zm0 409.323c-101.373 0-183.848-82.475-183.848-183.848S124.101 41.626 225.474 41.626s183.848 82.475 183.848 183.848-82.475 183.849-183.848 183.849z"/><path d="M505.902 476.472L386.574 357.144c-8.131-8.131-21.299-8.131-29.43 0-8.131 8.124-8.131 21.306 0 29.43l119.328 119.328A20.74 20.74 0 00491.187 512a20.754 20.754 0 0014.715-6.098c8.131-8.124 8.131-21.306 0-29.43z"/></symbol><symbol viewBox="0 0 21 20" id="star" xmlns="http://www.w3.org/2000/svg"><path d="M20.001 7.67a1 1 0 00-.86-.67l-5.69-.83L10.901 1a1 1 0 00-1.8 0l-2.55 5.16L.861 7a1 1 0 00-.81.68 1 1 0 00.25 1l4.13 4-1 5.68a1 1 0 001.45 1.07l5.12-2.67 5.1 2.68c.14.08.3.12.46.12a1 1 0 00.59-.19 1 1 0 00.4-1l-1-5.68 4.13-4a1 1 0 00.32-1.02zm-6.15 4a1 1 0 00-.29.89l.72 4.19-3.76-2a1 1 0 00-.94 0l-3.76 2 .72-4.19a1 1 0 00-.29-.89l-3-3 4.21-.61a1 1 0 00.76-.55l1.78-3.81 1.88 3.82a1 1 0 00.76.55l4.21.61-3 2.99z"/></symbol><symbol viewBox="0 0 16 16" id="support" xmlns="http://www.w3.org/2000/svg"><path fill-rule="evenodd" clip-rule="evenodd" d="M8.001.667c2.95 0 5.334 2.463 5.334 5.492v3.016c0 2.594-1.75 4.774-4.106 5.346a1.333 1.333 0 11-.172-1.336c1.694-.48 2.944-2.09 2.944-4.01V6.159c0-2.302-1.796-4.159-4-4.159-2.204 0-4 1.857-4 4.159v3.016a.667.667 0 11-1.333 0V6.159C2.668 3.13 5.051.667 8.001.667zM1.335 5.333c.368 0 .666.299.666.667v3.333a.667.667 0 11-1.333 0V6c0-.368.298-.667.667-.667zm13.333 0c.368 0 .667.299.667.667v3.333a.667.667 0 11-1.334 0V6c0-.368.299-.667.667-.667z"/></symbol><symbol viewBox="0 0 512 512" id="trash-alt" xmlns="http://www.w3.org/2000/svg"><path d="M395.891 99.28l-.699 363.758c0 3.791-3.203 6.995-6.995 6.995H123.803c-3.791 0-6.995-3.203-6.995-7.036l-.699-363.717-41.967.084.699 363.674c0 26.992 21.963 48.962 48.962 48.962h264.393c26.992 0 48.962-21.963 48.962-48.92l.699-363.716-41.966-.084z"/><path d="M477.027 78.339H34.973c-11.59 0-20.984 9.394-20.984 20.984 0 11.59 9.394 20.984 20.984 20.984h442.055c11.59 0 20.984-9.394 20.984-20.984-.001-11.591-9.395-20.984-20.985-20.984z"/><path d="M312.656 0H199.344c-19.284 0-34.973 15.689-34.973 34.973v64.35h41.967V41.967h99.322v57.355h41.967v-64.35C347.628 15.689 331.94 0 312.656 0zM206.339 187.454c-11.59 0-20.984 9.394-20.984 20.984v169.268c0 11.59 9.394 20.984 20.984 20.984s20.984-9.394 20.984-20.984V208.437c-.001-11.59-9.394-20.983-20.984-20.983zM305.661 187.454c-11.59 0-20.984 9.394-20.984 20.984v169.268c0 11.59 9.394 20.984 20.984 20.984 11.59 0 20.984-9.394 20.984-20.984V208.437c0-11.59-9.394-20.983-20.984-20.983z"/></symbol></svg>