<?xml version="1.0" encoding="utf-8"?><!DOCTYPE svg PUBLIC "-//W3C//DTD SVG 1.1//EN" "http://www.w3.org/Graphics/SVG/1.1/DTD/svg11.dtd"><svg xmlns="http://www.w3.org/2000/svg" xmlns:xlink="http://www.w3.org/1999/xlink"><symbol viewBox="0 0 20 20" id="bars" xmlns="http://www.w3.org/2000/svg"><path d="M.91 5.714h18.18c.503 0 .91-.426.91-.952s-.407-.952-.91-.952H.91c-.503 0-.91.426-.91.952s.407.952.91.952zM19.09 8.961H.91c-.503 0-.91.426-.91.952s.407.953.91.953h18.18c.503 0 .91-.427.91-.953s-.407-.952-.91-.952zM19.09 14.113H.91c-.503 0-.91.426-.91.952s.407.952.91.952h18.18c.503 0 .91-.426.91-.952s-.407-.952-.91-.952z"/></symbol><symbol viewBox="0 0 24 24" id="cart" xmlns="http://www.w3.org/2000/svg"><path d="M21 16H7a1 1 0 010-2h10.44a3 3 0 002.91-2.27L22 5.24a1 1 0 00-.18-.86A1 1 0 0021 4H6.76a3 3 0 00-2.82-2H3a1 1 0 000 2h.94a1 1 0 011 .76l.06.48L6.73 12A3.003 3.003 0 107 18h.18a3 3 0 105.64 0h2.36a3 3 0 105.64 0H21a1 1 0 000-2zM19.72 6l-1.31 5.24a1 1 0 01-1 .76H8.78l-1.5-6h12.44zM10 20a1 1 0 110-2 1 1 0 010 2zm8 0a1 1 0 110-2 1 1 0 010 2z"/><path fill-rule="evenodd" clip-rule="evenodd" d="M18.193 12.853a2 2 0 001.188-1.372v-.001L21 5h.028l-1.648 6.484v.003a2 2 0 01-1.188 1.366zM22 5.24l-1.65 6.49A3 3 0 0117.44 14H7a1 1 0 000 2h14a1 1 0 010 2h-.18A3.002 3.002 0 0118 22.023 3 3 0 0115.18 18h-2.36A3.002 3.002 0 0110 22.023a3 3 0 01-3-3.022A3.01 3.01 0 017.18 18H7a3.003 3.003 0 11-.27-6L5 5.24l-.06-.48a1 1 0 00-1-.76H3a1 1 0 010-2h.94a3 3 0 012.82 2H21a1 1 0 01.82.38 1 1 0 01.18.86zM5.937 4.671L6.053 5h-.054l1.2 4.802-1.215-4.749-.047-.382zm2.048 8.273L6.775 13a2.003 2.003 0 00.18 4.002L6.978 17H7a2 2 0 110-4h1l-.015-.056zM18.41 11.24L19.72 6H7.28l1.5 6h8.63a1 1 0 001-.76zM8.189 18.152A2 2 0 019.998 17H8.607l-.418 1.152zm-.189.86a2 2 0 104 0 2 2 0 01-4 0zm3.811-.86L11.393 17h-1.391a2.002 2.002 0 011.81 1.152zm4.378 0A1.999 1.999 0 0117.998 17h-1.391l-.418 1.152zm-.189.86a1.999 1.999 0 104 0 2 2 0 01-4 0zm3.811-.86L19.393 17h-1.391a2.002 2.002 0 011.81 1.152zm-10.367 1.68a1 1 0 101.111-1.663 1 1 0 00-1.11 1.662zm8 0a1 1 0 101.111-1.663 1 1 0 00-1.11 1.662z"/></symbol><symbol viewBox="0 0 24 24" id="compare" xmlns="http://www.w3.org/2000/svg"><path d="M22.964 13.823a.943.943 0 00-.028-.175l-2.305-6.137A2.995 2.995 0 0022 5a1 1 0 00-2 0 1 1 0 01-1.882.473A2.894 2.894 0 0015.54 4H13V3a1 1 0 00-2 0v1H8.46a2.893 2.893 0 00-2.578 1.473A1 1 0 014 5a1 1 0 00-2 0 2.995 2.995 0 001.369 2.511l-2.305 6.137a.949.949 0 00-.028.175A.95.95 0 001 14c0 .01.003.018.003.027 0 .013.003.025.004.039a3.994 3.994 0 007.986 0c.001-.014.004-.026.004-.039 0-.01.003-.018.003-.027a.95.95 0 00-.036-.177.949.949 0 00-.028-.175L6.629 7.504A2.99 2.99 0 007.643 6.42.917.917 0 018.46 6H11v14H8a1 1 0 000 2h8a1 1 0 000-2h-3V6h2.54a.917.917 0 01.817.42c.242.44.59.814 1.014 1.084l-2.307 6.144a.952.952 0 00-.028.175A.95.95 0 0015 14c0 .01.003.018.003.027 0 .013.003.025.004.039a3.994 3.994 0 007.986 0c.001-.014.004-.026.004-.039 0-.01.003-.018.003-.027a.943.943 0 00-.036-.177zM5 8.856L6.556 13H3.444L5 8.856zM6.723 15A2.023 2.023 0 015 16a2 2 0 01-1.731-1h3.454zM19 8.856L20.556 13h-3.112L19 8.856zM19 16a2 2 0 01-1.731-1h3.454A2.023 2.023 0 0119 16z"/><path fill-rule="evenodd" clip-rule="evenodd" d="M21.667 15.367l-.082.139A3.023 3.023 0 0119.011 17H19a2.994 2.994 0 002.667-1.633zm-6.603-1.719l2.307-6.144a2.989 2.989 0 01-1.014-1.084.917.917 0 00-.817-.42H13v14h3a1 1 0 010 2H8a1 1 0 010-2h3V6H8.46a.917.917 0 00-.817.42 2.99 2.99 0 01-1.014 1.084l2.307 6.144a.949.949 0 01.028.175A.95.95 0 019 14l-.001.014a.09.09 0 00-.002.013.193.193 0 01-.002.022l-.002.017a3.994 3.994 0 01-7.988-.017l-.002-.022A.09.09 0 001 14.014L1 14a.95.95 0 01.036-.177.949.949 0 01.028-.175l2.305-6.137A2.996 2.996 0 012 5a1 1 0 012 0 1 1 0 001.882.473A2.893 2.893 0 018.46 4H11V3a1 1 0 012 0v1h2.54a2.893 2.893 0 012.578 1.473A1 1 0 0020 5a1 1 0 012 0 2.995 2.995 0 01-1.369 2.511l2.305 6.137a.943.943 0 01.028.175c.018.057.03.117.036.177l-.001.014-.002.013c0 .008 0 .015-.002.022l-.002.017a3.994 3.994 0 01-7.986 0l-.002-.017-.002-.022-.002-.013L15 14a.95.95 0 01.036-.177.952.952 0 01.028-.175zm6.945.222v-.004l.001-.002v.005zm-4.984-8.22zm1.098 1.148l.47.3.048-.13a2 2 0 01-.518-.17zm1.236.17l.053.14.55-.355a1.998 1.998 0 01-.603.214zm-13.482-.17a2.024 2.024 0 01-.518.17l.049.13.469-.3zm-1.236.17a2.008 2.008 0 01-.603-.215l.55.356.053-.142zm2.338-1.323zM4.999 17zm0 0a2.995 2.995 0 002.668-1.633l-.082.139A3.022 3.022 0 015.011 17H5zM5 8.856L3.444 13h3.112L5 8.856zM6.723 15H3.269A2.001 2.001 0 005 16a2.023 2.023 0 001.723-1zM19 8.856L17.444 13h3.112L19 8.856zM17.269 15A2 2 0 0019 16a2.023 2.023 0 001.723-1h-3.454z"/></symbol><symbol viewBox="0 0 24 24" id="location" xmlns="http://www.w3.org/2000/svg"><path fill-rule="evenodd" clip-rule="evenodd" d="M12 1.995c2.251 0 4.41.894 6 2.485a8.45 8.45 0 010 11.95l-5.31 5.33a1.002 1.002 0 01-1.42 0L6 16.48a8.485 8.485 0 016-14.485zm0 17.595L16.57 15a6.46 6.46 0 10-9.14 0L12 19.59z"/><path fill-rule="evenodd" clip-rule="evenodd" d="M18 16.43a8.45 8.45 0 000-11.95 8.485 8.485 0 00-12 12l5.27 5.28a1.002 1.002 0 001.42 0L18 16.43zm.322-9.957a7.45 7.45 0 01-1.028 9.25l-5.312 5.331-.001.002-5.272-5.282a7.488 7.488 0 01-.937-9.444 7.46 7.46 0 00.95 9.376l5.279 5.301 5.277-5.3.001-.001a7.46 7.46 0 001.043-9.233zM16.571 15a6.46 6.46 0 10-9.14 0L12 19.59 16.57 15z"/><path d="M14 10a2 2 0 11-4 0 2 2 0 014 0z"/></symbol><symbol viewBox="0 0 184 184" id="mail-alt" xmlns="http://www.w3.org/2000/svg"><path d="M160.746 24.61H23.254C10.432 24.61 0 35.042 0 47.864v88.271c0 12.822 10.432 23.254 23.254 23.254h137.492c12.822 0 23.254-10.432 23.254-23.254V47.864c0-12.822-10.432-23.254-23.254-23.254zm-3.633 15L92 89.909 26.887 39.61h130.226zm3.633 104.78H23.254c-4.551 0-8.254-3.703-8.254-8.254V49.382l72.415 55.94c1.35 1.043 2.968 1.564 4.585 1.564s3.235-.521 4.585-1.564L169 49.382v86.753c0 4.552-3.703 8.255-8.254 8.255z"/></symbol><symbol viewBox="0 0 417.398 417.398" id="phone-alt" xmlns="http://www.w3.org/2000/svg"><path d="M395.552 284.869l-41.993-34.404c-27.358-22.413-69.826-20.292-94.784 4.665l-1.667 1.667c-4.185 4.185-11.002 4.152-15.128.025l-81.135-81.135c-4.096-4.096-4.177-10.684-.23-14.867.072-.076.145-.151.219-.226l-.223.223.222-.223c24.82-25.058 27.195-67.722 5.453-95.21l-34.059-43.059c-21.892-27.678-59.94-29.816-84.895-4.861l-6.256 6.256c-44.325 44.325-54.77 124.215-21.522 177.332 0 0 19.572 45.39 85.622 111.44s111.44 85.622 111.44 85.622c53.613 32.438 132.98 22.83 177.295-21.485l5.958-5.958c24.974-24.974 23.023-63.404-4.317-85.802zm-25.854 55.632l-5.958 5.958c-30.424 30.424-88.22 37.426-125.038 15.15l-2.505-1.516-2.688-1.159c-3.3-1.423-11.572-5.908-24.078-14.296-22.211-14.898-47.153-35.382-74.086-62.315s-47.418-51.875-62.315-74.086c-8.388-12.506-12.874-20.778-14.296-24.078l-1.288-2.987-1.726-2.757c-22.385-35.762-15.168-93.83 15.526-124.524l6.256-6.256c6.937-6.937 15.231-6.465 21.263 1.161l34.059 43.059c8.398 10.617 7.311 29.101-2.381 38.794-20.618 20.859-20.516 54.462.233 75.21l81.135 81.135c20.799 20.799 54.632 20.811 75.469-.025l1.667-1.667c9.46-9.46 27.192-10.336 37.574-1.83l41.993 34.404c7.84 6.422 8.299 15.511 1.184 22.625z"/></symbol><symbol viewBox="0 0 512 512" id="search" xmlns="http://www.w3.org/2000/svg"><path d="M225.474 0C101.151 0 0 101.151 0 225.474c0 124.33 101.151 225.474 225.474 225.474 124.33 0 225.474-101.144 225.474-225.474C450.948 101.151 349.804 0 225.474 0zm0 409.323c-101.373 0-183.848-82.475-183.848-183.848S124.101 41.626 225.474 41.626s183.848 82.475 183.848 183.848-82.475 183.849-183.848 183.849z"/><path d="M505.902 476.472L386.574 357.144c-8.131-8.131-21.299-8.131-29.43 0-8.131 8.124-8.131 21.306 0 29.43l119.328 119.328A20.74 20.74 0 00491.187 512a20.754 20.754 0 0014.715-6.098c8.131-8.124 8.131-21.306 0-29.43z"/></symbol><symbol viewBox="0 0 24 24" id="star" xmlns="http://www.w3.org/2000/svg"><path d="M22.001 9.67a1 1 0 00-.86-.67l-5.69-.83L12.901 3a1 1 0 00-1.8 0l-2.55 5.16-5.69.84a1 1 0 00-.81.68 1 1 0 00.25 1l4.13 4-1 5.68a1 1 0 001.45 1.07l5.12-2.67 5.1 2.68c.14.08.3.12.46.12a1 1 0 00.59-.19 1 1 0 00.4-1l-1-5.68 4.13-4a1 1 0 00.32-1.02zm-6.15 4a1 1 0 00-.29.89l.72 4.19-3.76-2a1 1 0 00-.94 0l-3.76 2 .72-4.19a1 1 0 00-.29-.89l-3-3 4.21-.61a1 1 0 00.76-.55l1.78-3.81 1.88 3.82a1 1 0 00.76.55l4.21.61-3 2.99z"/></symbol><symbol viewBox="0 0 16 16" id="support" xmlns="http://www.w3.org/2000/svg"><path fill-rule="evenodd" clip-rule="evenodd" d="M8.001.667c2.95 0 5.334 2.463 5.334 5.492v3.016c0 2.594-1.75 4.774-4.106 5.346a1.333 1.333 0 11-.172-1.336c1.694-.48 2.944-2.09 2.944-4.01V6.159c0-2.302-1.796-4.159-4-4.159-2.204 0-4 1.857-4 4.159v3.016a.667.667 0 11-1.333 0V6.159C2.668 3.13 5.051.667 8.001.667zM1.335 5.333c.368 0 .666.299.666.667v3.333a.667.667 0 11-1.333 0V6c0-.368.298-.667.667-.667zm13.333 0c.368 0 .667.299.667.667v3.333a.667.667 0 11-1.334 0V6c0-.368.299-.667.667-.667z"/></symbol></svg>