<svg width="121" height="24" viewBox="0 0 121 24" fill="none" xmlns="http://www.w3.org/2000/svg">
<g clip-path="url(#clip0)">
<path d="M7.69754 2.08293H6.61075C4.93527 2.08293 3.35037 3.16973 3.35037 6.38482C3.35037 9.46406 4.84471 10.4603 6.61075 10.4603H7.69754V2.08293ZM5.97678 12.181L2.71641 19.5169H0.316406L3.89377 11.6829C2.21829 10.8226 1.08622 9.23765 1.08622 6.38482C1.08622 2.30935 3.62207 0.316895 6.65603 0.316895H9.73527V19.4716H7.69754V12.181H5.97678Z" fill="white"/>
<path d="M49.81 12.7695C49.81 8.55816 51.4402 5.84118 54.61 5.84118C55.8327 5.84118 56.5119 6.15816 57.1006 6.52043L56.7836 8.51288C56.2402 8.01477 55.4251 7.56194 54.5647 7.56194C53.0704 7.56194 51.9836 9.23741 51.9836 12.6336C51.9836 15.9846 52.7987 17.9317 54.4742 17.9317C55.4704 17.9317 56.2855 17.5242 56.7383 17.1167L57.2364 18.6563C56.5119 19.2902 55.6515 19.6525 54.4289 19.6525C51.5308 19.6978 49.81 17.3431 49.81 12.7695ZM43.6968 12.7695V19.5167H41.6138V5.97703H43.6968V12.2261L46.9572 5.97703H49.0855L45.7346 12.3167L49.5836 19.4714H47.3195L43.6968 12.7695ZM33.8704 11.5468H37.3119C37.3119 9.23741 36.9496 7.56194 35.727 7.56194C34.4591 7.51665 34.0063 9.10156 33.8704 11.5468ZM36.1798 19.6978C33.3723 19.6978 31.6968 17.4789 31.6968 13.3129C31.6968 8.96571 32.9195 5.7959 35.7723 5.7959C38.0364 5.7959 39.4855 7.47137 39.4855 12.045V13.177H33.8251C33.8251 16.211 34.6855 17.8412 36.361 17.8412C37.5383 17.8412 38.4893 17.2978 39.0327 16.9355L39.5308 18.5204C38.6251 19.245 37.493 19.6978 36.1798 19.6978ZM27.3044 7.69779H24.9949V7.9242C24.9949 10.777 24.8591 14.8978 23.727 17.7959H27.3044V7.69779ZM30.4289 22.1431H28.527V19.5167H22.7761V22.1884H20.9195V17.8412H21.7346C22.9572 14.9884 23.093 10.8223 23.093 7.19967V6.0676H29.3421V17.8412H30.4289V22.1431ZM19.6968 5.97703V19.4714H17.6138V13.4487H14.4893V19.5167H12.4062V5.97703H14.4893V11.6827H17.6138V5.97703H19.6968Z" fill="white"/>
<path d="M65.5246 5.98033C65.2529 4.9841 65.0265 4.12372 64.8906 3.26335H64.8C64.8453 4.16901 64.8906 5.11995 64.8906 6.11618V19.52H63.668V0.365234H65.2076L68.468 12.5917C68.6038 13.0898 68.7849 14.086 68.8755 14.8105H68.9661C69.0566 14.086 69.2831 13.0898 69.4189 12.5917L72.6793 0.365234H74.1736V19.52H72.9057V6.11618C72.9057 5.21052 72.951 4.25957 72.9963 3.26335H72.9057C72.6793 4.35014 72.4982 5.11995 72.2717 5.93505L69.4189 16.5766H68.3774L65.5246 5.98033Z" fill="white"/>
<path d="M82.5047 16.1204V12.4072H81.0556C78.8368 12.4072 77.75 13.4034 77.75 15.7582C77.75 17.6601 78.5651 18.7468 79.8783 18.7468C81.1009 18.7468 82.0066 17.5695 82.5047 16.1204ZM82.55 17.7053C81.916 18.9733 80.9651 19.7884 79.6066 19.7884C77.7953 19.7884 76.5273 18.3393 76.5273 15.894C76.5273 12.9959 78.1122 11.5016 81.0104 11.5016H82.5047V9.82609C82.5047 7.78835 81.7349 6.88269 80.2405 6.88269C79.1085 6.88269 78.067 7.42609 77.3877 8.37703L77.0255 7.15439C77.5689 6.47514 78.7009 5.7959 80.1953 5.7959C82.4141 5.7959 83.6821 7.01854 83.6821 9.69024V17.0714C83.6821 18.0223 83.8179 19.0638 83.999 19.5619H82.867C82.7311 19.1544 82.5953 18.6563 82.55 17.7053Z" fill="white"/>
<path d="M93.1934 12.4529C93.1934 8.92079 92.2424 6.83777 90.6575 6.83777C89.4349 6.83777 88.4386 8.10569 87.85 9.55475V17.117C88.3934 18.2038 89.1179 18.7472 90.3405 18.7472C92.0613 18.7472 93.1934 16.7095 93.1934 12.4529ZM87.85 18.5661V23.6831H86.582V6.02267H87.6688L87.7594 8.24154C88.3481 6.97362 89.3443 5.75098 90.8386 5.75098C93.1028 5.75098 94.416 8.46796 94.416 12.3623C94.416 17.2981 92.7405 19.7434 90.25 19.7434C89.2537 19.7434 88.3934 19.2453 87.85 18.5661Z" fill="white"/>
<path d="M98.1273 19.5167H96.8594V5.97705H98.1273V12.362L102.656 5.97705H103.878L99.4405 12.2714L104.195 19.5167H102.791L98.1273 12.4978V19.5167Z" fill="white"/>
<path d="M106.006 11.9999H110.942C111.168 8.42255 110.082 6.79236 108.723 6.79236C107.274 6.79236 106.142 8.60368 106.006 11.9999ZM108.95 18.6565C110.761 18.6565 111.667 17.2075 111.667 17.2075L112.074 18.2037C112.074 18.2037 111.078 19.7433 108.904 19.7433C106.051 19.7433 104.738 17.1622 104.738 12.7244C104.738 8.2867 106.414 5.70557 108.678 5.70557C110.987 5.70557 112.527 8.15085 112.074 12.9508H105.961C106.051 16.6641 107.002 18.6565 108.95 18.6565Z" fill="white"/>
<path d="M117.658 7.06043V19.5133H116.39V7.06043H113.266V5.97363H120.737V7.06043H117.658Z" fill="white"/>
</g>
<defs>
<clipPath id="clip0">
<rect width="120.906" height="24" fill="white"/>
</clipPath>
</defs>
</svg>
