<svg width="16" height="12" viewBox="0 0 16 12" fill="none" xmlns="http://www.w3.org/2000/svg">
<path d="M14.3535 1.56196L14.3613 1.56984L14.3695 1.57736C14.4202 1.62418 14.4607 1.68101 14.4884 1.74426C14.5161 1.80751 14.5304 1.87581 14.5304 1.94486C14.5304 2.01391 14.5161 2.08221 14.4884 2.14546C14.4607 2.20871 14.4202 2.26554 14.3695 2.31236L14.3621 2.31919L14.3549 2.32631L6.19493 10.4863L6.19349 10.4878C6.147 10.5346 6.0917 10.5718 6.03077 10.5972C5.96985 10.6226 5.90449 10.6357 5.83849 10.6357C5.77248 10.6357 5.70712 10.6226 5.6462 10.5972C5.58527 10.5718 5.52997 10.5346 5.48349 10.4878L5.48204 10.4863L1.64204 6.64631L1.64209 6.64625L1.63587 6.64024C1.58657 6.59263 1.54714 6.53576 1.51982 6.4729C1.4925 6.41004 1.47783 6.34242 1.47664 6.27389C1.47545 6.20536 1.48778 6.13727 1.51291 6.0735C1.53804 6.00973 1.57548 5.95154 1.6231 5.90225C1.67072 5.85295 1.72758 5.81351 1.79044 5.78619C1.8533 5.75887 1.92093 5.7442 1.98946 5.74302C2.05799 5.74183 2.12608 5.75416 2.18984 5.77928C2.25239 5.80393 2.30957 5.84043 2.35825 5.88675L5.48437 9.02285L5.83816 9.37777L6.19228 9.02318L13.6423 1.56318L13.6435 1.56196C13.69 1.5151 13.7453 1.4779 13.8062 1.45252C13.8671 1.42713 13.9325 1.41406 13.9985 1.41406C14.0645 1.41406 14.1298 1.42713 14.1908 1.45252C14.2517 1.4779 14.307 1.5151 14.3535 1.56196Z" fill="#1B1C1E" stroke="#1B1C1E"/>
</svg>
