<svg width="10" height="8" viewBox="0 0 10 8" fill="none" xmlns="http://www.w3.org/2000/svg">
<path d="M8.87815 1.16001L8.87935 1.1588C8.89485 1.14317 8.91328 1.13078 8.93359 1.12231C8.9539 1.11385 8.97568 1.1095 8.99769 1.1095C9.01969 1.1095 9.04147 1.11385 9.06178 1.12231C9.08209 1.13078 9.10052 1.14317 9.11602 1.1588L9.47102 0.806696L9.13199 1.1742C9.1489 1.1898 9.16241 1.20875 9.17164 1.22983C9.18087 1.25091 9.18564 1.27368 9.18564 1.2967C9.18564 1.31971 9.18087 1.34248 9.17164 1.36356C9.16241 1.38465 9.1489 1.40359 9.13199 1.4192L9.12459 1.42602L9.11747 1.43314L3.67747 6.87314L3.67746 6.87314L3.67602 6.8746C3.66053 6.89022 3.64209 6.90262 3.62178 6.91108C3.60148 6.91954 3.57969 6.92389 3.55769 6.92389C3.53568 6.92389 3.5139 6.91954 3.49359 6.91108C3.47328 6.90262 3.45485 6.89022 3.43935 6.8746L3.43936 6.87459L3.43791 6.87314L0.877908 4.31314L0.877961 4.31309L0.871739 4.30708C0.854617 4.29054 0.84092 4.27079 0.831431 4.24896C0.821941 4.22712 0.816845 4.20363 0.816433 4.17983C0.816022 4.15603 0.820302 4.13238 0.829031 4.11023C0.837759 4.08808 0.850765 4.06787 0.867304 4.05075C0.883844 4.03362 0.903595 4.01993 0.925428 4.01044C0.94726 4.00095 0.970749 3.99585 0.994552 3.99544C1.01835 3.99503 1.04201 3.99931 1.06415 4.00804C1.0853 4.01637 1.10469 4.02861 1.1213 4.0441L3.20357 6.13302L3.55736 6.48794L3.91148 6.13335L8.87815 1.16001Z" fill="#219653" stroke="#219653"/>
</svg>
