<svg width="48" height="64" viewBox="0 0 48 64" fill="none" xmlns="http://www.w3.org/2000/svg">
<rect width="48" height="64" fill="white"/>
<path d="M0.5 4C0.5 2.067 2.067 0.5 4 0.5H44C45.933 0.5 47.5 2.067 47.5 4V51.0766C47.5 52.2086 46.9525 53.2707 46.0305 53.9274L33.5016 62.8508C32.9087 63.2731 32.199 63.5 31.4711 63.5H4C2.067 63.5 0.5 61.933 0.5 60V4Z" fill="white" stroke="#DFE3E8"/>
<path d="M9.78551 36.1108C10.331 36.1108 10.804 35.6548 10.8082 35.0881C10.804 34.5298 10.331 34.0739 9.78551 34.0739C9.22301 34.0739 8.75852 34.5298 8.76278 35.0881C8.75852 35.6548 9.22301 36.1108 9.78551 36.1108ZM13.6527 36H15.4979V33.1705H17.049C19.0562 33.1705 20.2238 31.973 20.2238 30.2301C20.2238 28.4957 19.0775 27.2727 17.0959 27.2727H13.6527V36ZM15.4979 31.6918V28.7812H16.7422C17.8076 28.7812 18.3232 29.3608 18.3232 30.2301C18.3232 31.0952 17.8076 31.6918 16.7508 31.6918H15.4979ZM25.836 36C28.4951 36 30.1059 34.3551 30.1059 31.6278C30.1059 28.9091 28.4951 27.2727 25.8616 27.2727H22.7423V36H25.836ZM24.5874 34.419V28.8537H25.7636C27.3999 28.8537 28.265 29.6889 28.265 31.6278C28.265 33.5753 27.3999 34.419 25.7593 34.419H24.5874ZM32.7927 36H34.6379V32.3949H38.1876V30.8736H34.6379V28.794H38.5712V27.2727H32.7927V36Z" fill="#27AE60"/>
</svg>
