<svg width="32" height="32" viewBox="0 0 32 32" fill="none" xmlns="http://www.w3.org/2000/svg">
<path d="M16.8346 14.6665V15.1665H17.3346H21.3346C21.5557 15.1665 21.7676 15.2543 21.9239 15.4106C22.0802 15.5669 22.168 15.7788 22.168 15.9998C22.168 16.2209 22.0802 16.4328 21.9239 16.5891C21.7676 16.7454 21.5557 16.8332 21.3346 16.8332H17.3346H16.8346V17.3332V21.3332C16.8346 21.5542 16.7468 21.7661 16.5906 21.9224C16.4343 22.0787 16.2223 22.1665 16.0013 22.1665C15.7803 22.1665 15.5683 22.0787 15.4121 21.9224C15.2558 21.7661 15.168 21.5542 15.168 21.3332V17.3332V16.8332H14.668H10.668C10.447 16.8332 10.235 16.7454 10.0787 16.5891C9.92244 16.4328 9.83464 16.2209 9.83464 15.9998C9.83464 15.7788 9.92244 15.5669 10.0787 15.4106C10.235 15.2543 10.447 15.1665 10.668 15.1665H14.668H15.168V14.6665V10.6665C15.168 10.4455 15.2558 10.2335 15.4121 10.0772C15.5683 9.92097 15.7803 9.83317 16.0013 9.83317C16.2223 9.83317 16.4343 9.92097 16.5906 10.0772C16.7468 10.2335 16.8346 10.4455 16.8346 10.6665V14.6665ZM8.87149 5.32931C10.9819 3.91917 13.4631 3.1665 16.0013 3.1665C17.6866 3.1665 19.3554 3.49845 20.9124 4.14338C22.4694 4.78832 23.8842 5.73361 25.0758 6.9253C26.2675 8.11699 27.2128 9.53172 27.8578 11.0887C28.5027 12.6457 28.8346 14.3145 28.8346 15.9998C28.8346 18.538 28.082 21.0192 26.6718 23.1297C25.2617 25.2401 23.2574 26.885 20.9124 27.8563C18.5674 28.8276 15.9871 29.0818 13.4977 28.5866C11.0082 28.0914 8.72155 26.8692 6.92677 25.0744C5.132 23.2796 3.90974 20.9929 3.41456 18.5035C2.91939 16.0141 3.17353 13.4337 4.14485 11.0887C5.11618 8.74375 6.76106 6.73946 8.87149 5.32931ZM9.79744 25.2846C11.6338 26.5116 13.7928 27.1665 16.0013 27.1665C18.9629 27.1665 21.8032 25.99 23.8973 23.8959C25.9915 21.8017 27.168 18.9614 27.168 15.9998C27.168 13.7913 26.5131 11.6323 25.2861 9.79597C24.059 7.95962 22.315 6.52836 20.2746 5.68318C18.2342 4.838 15.9889 4.61687 13.8228 5.04774C11.6567 5.4786 9.66697 6.54213 8.10528 8.10381C6.5436 9.6655 5.48007 11.6552 5.04921 13.8213C4.61834 15.9875 4.83948 18.2327 5.68465 20.2731C6.52983 22.3136 7.96109 24.0576 9.79744 25.2846Z" fill="white" stroke="white"/>
</svg>
