<svg width="40" height="40" viewBox="0 0 40 40" fill="none" xmlns="http://www.w3.org/2000/svg">
<path d="M25.0023 16.6667H20.0023V11.6667C20.0023 11.2247 19.8267 10.8008 19.5141 10.4882C19.2016 10.1757 18.7776 10.0001 18.3356 10.0001C17.8936 10.0001 17.4697 10.1757 17.1571 10.4882C16.8445 10.8008 16.6689 11.2247 16.6689 11.6667V16.6667H11.6689C11.2269 16.6667 10.803 16.8423 10.4904 17.1549C10.1779 17.4674 10.0023 17.8914 10.0023 18.3334C10.0023 18.7754 10.1779 19.1993 10.4904 19.5119C10.803 19.8245 11.2269 20.0001 11.6689 20.0001H16.6689V25.0001C16.6689 25.4421 16.8445 25.866 17.1571 26.1786C17.4697 26.4911 17.8936 26.6667 18.3356 26.6667C18.7776 26.6667 19.2016 26.4911 19.5141 26.1786C19.8267 25.866 20.0023 25.4421 20.0023 25.0001V20.0001H25.0023C25.4443 20.0001 25.8682 19.8245 26.1808 19.5119C26.4934 19.1993 26.6689 18.7754 26.6689 18.3334C26.6689 17.8914 26.4934 17.4674 26.1808 17.1549C25.8682 16.8423 25.4443 16.6667 25.0023 16.6667ZM36.1856 33.8167L30.0023 27.6834C32.4024 24.6907 33.5648 20.8922 33.2503 17.0689C32.9358 13.2456 31.1684 9.68803 28.3115 7.12779C25.4546 4.56756 21.7253 3.19924 17.8905 3.30417C14.0557 3.40911 10.4068 4.97932 7.69419 7.69196C4.98155 10.4046 3.41133 14.0535 3.3064 17.8883C3.20147 21.7231 4.56979 25.4523 7.13002 28.3093C9.69025 31.1662 13.2478 32.9336 17.0711 33.2481C20.8944 33.5626 24.693 32.4002 27.6856 30.0001L33.819 36.1334C33.9739 36.2896 34.1582 36.4136 34.3613 36.4982C34.5644 36.5828 34.7823 36.6264 35.0023 36.6264C35.2223 36.6264 35.4401 36.5828 35.6432 36.4982C35.8463 36.4136 36.0307 36.2896 36.1856 36.1334C36.486 35.8226 36.6539 35.4073 36.6539 34.9751C36.6539 34.5428 36.486 34.1275 36.1856 33.8167ZM18.3356 30.0001C16.0282 30.0001 13.7725 29.3158 11.854 28.0339C9.93539 26.7519 8.44004 24.9298 7.55702 22.798C6.674 20.6662 6.44296 18.3204 6.89312 16.0573C7.34328 13.7942 8.45442 11.7154 10.086 10.0838C11.7176 8.4522 13.7965 7.34105 16.0596 6.89089C18.3227 6.44073 20.6685 6.67177 22.8003 7.55479C24.9321 8.43782 26.7541 9.93316 28.0361 11.8517C29.318 13.7703 30.0023 16.0259 30.0023 18.3334C30.0023 21.4276 28.7731 24.395 26.5852 26.583C24.3973 28.7709 21.4298 30.0001 18.3356 30.0001Z" fill="white"/>
</svg>
