<svg width="23" height="25" viewBox="0 0 23 25" fill="none" xmlns="http://www.w3.org/2000/svg">
<g clip-path="url(#clip0)">
<path d="M20.4038 2.36597C19.8011 1.80989 17.3657 0.041915 11.9409 0.0178957C11.9409 0.0178957 5.54379 -0.36787 2.42527 2.49262C0.689327 4.22893 0.0786529 6.76952 0.0142373 9.91933C-0.0501783 13.0691 -0.133519 18.9721 5.55652 20.5727H5.56198L5.55834 23.015C5.55834 23.015 5.52195 24.0038 6.17302 24.2054C6.96056 24.45 7.42276 23.6984 8.17463 22.8883C8.58733 22.4436 9.15725 21.7904 9.58668 21.291C13.4782 21.6186 16.4711 20.87 16.8111 20.7593C17.5968 20.5046 22.0429 19.935 22.766 14.0325C23.5125 7.94866 22.405 4.10046 20.4038 2.36597Z" fill="#2A2B2E"/>
<path d="M19.1382 3.59462C18.6287 3.1317 16.4295 1.74985 11.8407 1.72984C11.8407 1.72984 6.40689 1.37282 3.76913 3.76202C2.30104 5.21156 1.80646 7.36711 1.75223 9.9976C1.69801 12.6281 1.41705 17.6532 6.22857 18.9899C6.22857 18.9899 6.20964 22.7206 6.20746 23.0485C6.20746 23.2778 6.24385 23.4346 6.37487 23.467C6.46912 23.4899 6.61033 23.4412 6.73043 23.3214C7.49977 22.5488 9.96285 19.5773 9.96285 19.5773C13.2677 19.7931 15.8971 19.1406 16.1799 19.0482C16.8466 18.8338 20.4528 18.5241 21.0631 13.5943C21.6938 8.51276 20.8313 5.04415 19.1382 3.59462Z" fill="#7360F2"/>
<path d="M14.1733 9.78145C14.1136 8.5783 13.5025 7.9464 12.3398 7.88574" stroke="#2A2B2E" stroke-width="0.613586" stroke-linecap="round" stroke-linejoin="round"/>
<path d="M15.7479 10.3091C15.7722 9.18818 15.4402 8.25167 14.7519 7.49955C14.0604 6.74476 13.1033 6.32915 11.875 6.23926" stroke="#2A2B2E" stroke-width="0.613586" stroke-linecap="round" stroke-linejoin="round"/>
<path d="M17.3573 10.9396C17.3425 8.99448 16.7613 7.46258 15.6137 6.34386C14.4661 5.22514 13.0389 4.65984 11.332 4.64795" stroke="#2A2B2E" stroke-width="0.613586" stroke-linecap="round" stroke-linejoin="round"/>
<path d="M12.4002 13.8907C12.4002 13.8907 12.8315 13.9271 13.0637 13.641L13.5164 13.0715C13.7348 12.7891 14.2617 12.6089 14.7778 12.8964C15.1645 13.117 15.5399 13.3567 15.9027 13.6148C16.2452 13.8667 16.9464 14.4519 16.9486 14.4519C17.2827 14.7339 17.3599 15.1481 17.1324 15.5848C17.1324 15.5873 17.1306 15.5917 17.1306 15.5939C16.8801 16.0282 16.562 16.4198 16.1884 16.7541C16.184 16.7563 16.184 16.7584 16.18 16.7606C15.8554 17.0319 15.5365 17.1861 15.2232 17.2232C15.1771 17.2313 15.1303 17.2342 15.0835 17.2319C14.9454 17.2333 14.8079 17.2121 14.6766 17.1693L14.6664 17.1544C14.1839 17.0183 13.3781 16.6777 12.0363 15.9374C11.2598 15.5141 10.5206 15.0258 9.82652 14.4777C9.47864 14.2031 9.14679 13.9088 8.83263 13.5963L8.79915 13.5628L8.76567 13.5293L8.73219 13.4958C8.7209 13.4849 8.70999 13.4736 8.6987 13.4623C8.38612 13.1482 8.09183 12.8163 7.81727 12.4684C7.26926 11.7745 6.78094 11.0353 6.35754 10.259C5.61731 8.91685 5.27667 8.11184 5.14056 7.62854L5.12564 7.61835C5.08298 7.487 5.06196 7.34958 5.06341 7.21148C5.06086 7.16473 5.06367 7.11784 5.07178 7.07173C5.11084 6.75899 5.26527 6.43982 5.53506 6.11423C5.53725 6.11022 5.53943 6.11022 5.54161 6.10586C5.87581 5.73221 6.26747 5.41427 6.70182 5.16401C6.704 5.16401 6.70837 5.16182 6.71092 5.16182C7.14764 4.93437 7.56179 5.01152 7.84347 5.34379C7.84565 5.34597 8.42976 6.04726 8.68051 6.38972C8.93862 6.75283 9.17839 7.12863 9.39891 7.51572C9.68641 8.03141 9.50626 8.55947 9.22385 8.7771L8.6543 9.22983C8.3668 9.46202 8.40465 9.89327 8.40465 9.89327C8.40465 9.89327 9.24824 13.086 12.4002 13.8907Z" fill="#2A2B2E"/>
</g>
<defs>
<clipPath id="clip0">
<rect width="23" height="24.2534" fill="white"/>
</clipPath>
</defs>
</svg>
