<svg width="23" height="25" viewBox="0 0 23 25" fill="none" xmlns="http://www.w3.org/2000/svg">
<g clip-path="url(#clip0)">
<path d="M20.4038 2.36615C19.8011 1.81007 17.3657 0.0420981 11.9409 0.0180788C11.9409 0.0180788 5.54379 -0.367687 2.42527 2.4928C0.689327 4.22911 0.0786529 6.7697 0.0142373 9.91952C-0.0501783 13.0693 -0.133519 18.9723 5.55652 20.5728H5.56198L5.55834 23.0152C5.55834 23.0152 5.52195 24.004 6.17302 24.2056C6.96057 24.4501 7.42276 23.6986 8.17463 22.8885C8.58733 22.4438 9.15725 21.7905 9.58668 21.2912C13.4782 21.6188 16.4711 20.8702 16.8111 20.7595C17.5968 20.5048 22.0429 19.9352 22.766 14.0327C23.5125 7.94884 22.405 4.10064 20.4038 2.36615Z" fill="white"/>
<path d="M19.1382 3.59455C18.6287 3.13164 16.4295 1.74979 11.8407 1.72978C11.8407 1.72978 6.40689 1.37276 3.76913 3.76196C2.30104 5.21149 1.80646 7.36705 1.75223 9.99754C1.69801 12.628 1.41705 17.6532 6.22857 18.9899C6.22857 18.9899 6.20964 22.7205 6.20746 23.0484C6.20746 23.2777 6.24385 23.4346 6.37487 23.4669C6.46912 23.4899 6.61033 23.4411 6.73043 23.3214C7.49977 22.5487 9.96285 19.5773 9.96285 19.5773C13.2677 19.7931 15.8971 19.1405 16.1799 19.0481C16.8466 18.8338 20.4528 18.524 21.0631 13.5943C21.6938 8.5127 20.8312 5.04409 19.1382 3.59455Z" fill="#7360F2"/>
<path d="M14.1733 9.78133C14.1136 8.57818 13.5025 7.94628 12.3398 7.88562" stroke="white" stroke-width="0.613586" stroke-linecap="round" stroke-linejoin="round"/>
<path d="M15.7479 10.3091C15.7722 9.18815 15.4402 8.25164 14.7519 7.49952C14.0604 6.74473 13.1033 6.32912 11.875 6.23923" stroke="white" stroke-width="0.613586" stroke-linecap="round" stroke-linejoin="round"/>
<path d="M17.3573 10.9394C17.3425 8.99427 16.7613 7.46237 15.6137 6.34365C14.4661 5.22493 13.0389 4.65962 11.332 4.64774" stroke="white" stroke-width="0.613586" stroke-linecap="round" stroke-linejoin="round"/>
<path d="M12.4002 13.8905C12.4002 13.8905 12.8315 13.9269 13.0637 13.6408L13.5164 13.0713C13.7348 12.7889 14.2617 12.6087 14.7778 12.8962C15.1645 13.1168 15.5399 13.3566 15.9027 13.6146C16.2452 13.8665 16.9464 14.4517 16.9486 14.4517C17.2827 14.7337 17.3599 15.1479 17.1324 15.5846C17.1324 15.5871 17.1306 15.5915 17.1306 15.5937C16.8801 16.028 16.562 16.4196 16.1884 16.7539C16.184 16.7561 16.184 16.7583 16.18 16.7604C15.8554 17.0317 15.5365 17.1859 15.2232 17.223C15.1771 17.2311 15.1303 17.234 15.0835 17.2317C14.9454 17.2331 14.8079 17.2119 14.6766 17.1691L14.6664 17.1542C14.1839 17.0181 13.3781 16.6775 12.0363 15.9372C11.2598 15.5139 10.5206 15.0256 9.82652 14.4775C9.47864 14.203 9.14679 13.9087 8.83263 13.5961L8.79915 13.5626L8.76567 13.5291L8.73219 13.4956C8.7209 13.4847 8.70999 13.4734 8.6987 13.4622C8.38612 13.148 8.09183 12.8161 7.81727 12.4683C7.26926 11.7743 6.78094 11.0352 6.35754 10.2588C5.61731 8.91667 5.27667 8.11165 5.14056 7.62836L5.12564 7.61817C5.08298 7.48681 5.06196 7.34939 5.06341 7.21129C5.06086 7.16454 5.06367 7.11765 5.07178 7.07154C5.11084 6.75881 5.26527 6.43964 5.53506 6.11404C5.53725 6.11004 5.53943 6.11004 5.54161 6.10567C5.87581 5.73203 6.26747 5.41409 6.70182 5.16382C6.704 5.16382 6.70837 5.16164 6.71092 5.16164C7.14764 4.93418 7.56179 5.01134 7.84347 5.3436C7.84565 5.34579 8.42976 6.04708 8.68051 6.38954C8.93862 6.75265 9.17839 7.12845 9.39891 7.51554C9.68641 8.03123 9.50626 8.55929 9.22385 8.77692L8.6543 9.22965C8.3668 9.46183 8.40465 9.89309 8.40465 9.89309C8.40465 9.89309 9.24824 13.0858 12.4002 13.8905Z" fill="white"/>
</g>
<defs>
<clipPath id="clip0">
<rect width="23" height="24.2534" fill="white"/>
</clipPath>
</defs>
</svg>
