<svg width="20" height="20" viewBox="0 0 20 20" fill="none" xmlns="http://www.w3.org/2000/svg">
<path d="M10.0707 14.7697L10.0874 14.7708H10.1042C10.5682 14.7708 10.9683 14.7262 11.25 14.5384C11.611 14.2977 11.6458 13.9309 11.6458 13.7083V12.4259C11.7883 12.4858 12.0823 12.6637 12.6289 13.1901C12.8661 13.4275 13.0547 13.6329 13.2147 13.8103C13.2444 13.8432 13.2737 13.8759 13.3025 13.9079C13.4248 14.0442 13.5389 14.1712 13.6429 14.2757C13.7732 14.4068 13.9186 14.5351 14.0932 14.6274C14.279 14.7256 14.474 14.7708 14.6875 14.7708H16.1458C16.4163 14.7708 16.7509 14.7058 16.9779 14.4421C17.2221 14.1584 17.2134 13.8006 17.1237 13.5092L17.1117 13.4704L17.0937 13.434C16.7586 12.7588 16.3165 12.1424 15.7845 11.6086C15.6037 11.397 15.3876 11.1855 15.211 11.0127L15.1923 10.9943C14.9829 10.7892 14.869 10.6729 14.8327 10.6185L14.8226 10.6033L14.8114 10.5888C14.8079 10.5843 14.8046 10.5801 14.8016 10.576C14.8092 10.5638 14.8179 10.5502 14.828 10.5346C15.6166 9.46082 16.2883 8.3058 16.8315 7.08925L16.8447 7.05987L16.8539 7.02905C16.9152 6.8249 16.9653 6.49852 16.7635 6.21356C16.5561 5.92085 16.2145 5.85413 15.9375 5.85413H14.494C14.2548 5.84178 14.0177 5.90586 13.8171 6.03737C13.6155 6.16959 13.4617 6.36284 13.378 6.58865C12.9509 7.607 12.3794 8.55849 11.6811 9.41384C11.6689 9.42595 11.6572 9.43758 11.6458 9.44874V6.88538C11.6458 6.67886 11.6232 6.40156 11.4533 6.17724C11.2545 5.91488 10.9633 5.85413 10.7292 5.85413H8.44617C8.2273 5.84787 8.01407 5.92536 7.85017 6.07106C7.68293 6.21973 7.58022 6.42773 7.56384 6.6509L7.5625 6.66917V6.6875C7.5625 6.91501 7.65179 7.08517 7.73197 7.20257C7.76931 7.25722 7.81023 7.30826 7.84065 7.34616L7.84753 7.35472C7.87799 7.39266 7.9029 7.42369 7.92804 7.45784C8.01458 7.5754 8.11952 7.74769 8.14581 8.12085V10.0207C8.0063 9.85636 7.84653 9.63667 7.67634 9.3679C7.24617 8.68858 6.7839 7.7505 6.44214 6.7453L6.43941 6.73727L6.43641 6.72934C6.36064 6.52905 6.25647 6.29142 6.06267 6.11547C5.84283 5.91586 5.5788 5.85413 5.3125 5.85413H3.85419C3.57745 5.85413 3.29127 5.91918 3.08526 6.13624C2.88213 6.35027 2.85419 6.61134 2.85419 6.77081V6.82405L2.8654 6.8761C3.26063 8.71079 4.07629 10.4286 5.24802 11.8943C5.76569 12.7152 6.46915 13.4031 7.30178 13.9023C8.14302 14.4066 9.09204 14.7039 10.0707 14.7697ZM8.45561 10.3149C8.45823 10.316 8.45957 10.3167 8.45959 10.3168C8.45961 10.3169 8.4583 10.3163 8.45561 10.3149ZM6.9375 0.5H13.0729C15.8837 0.5 17.4134 0.847495 18.284 1.72029C19.155 2.59348 19.5 4.12625 19.5 6.9375V13.0729C19.5 15.8837 19.1525 17.4134 18.2797 18.284C17.4065 19.155 15.8738 19.5 13.0625 19.5H6.92706C4.11628 19.5 2.58658 19.1525 1.71598 18.2797C0.844983 17.4065 0.5 15.8737 0.5 13.0625V6.92706C0.5 4.12178 0.847386 2.59167 1.72051 1.71965C2.59387 0.847396 4.12688 0.5 6.9375 0.5Z" fill="#2787F5" stroke="#2787F5"/>
</svg>
