<svg width="24" height="24" viewBox="0 0 24 24" fill="none" xmlns="http://www.w3.org/2000/svg">
<path d="M9.36754 15.9657L11.1171 17.7153L9.60514 21.7977C9.43234 22.2513 9.00034 22.5321 8.54674 22.5321C8.41714 22.5321 8.28754 22.5105 8.15794 22.4673C7.57474 22.2513 7.27234 21.6033 7.48834 21.0201L9.36754 15.9657Z" fill="#2A2B2E"/>
<path d="M6.10595 11.4945L7.14275 9.50732C7.42355 8.98892 7.83395 8.55692 8.33075 8.25452C10.7284 6.82892 11.0308 6.85052 11.3332 6.87212L12.9532 6.98012C13.45 7.00172 13.7956 7.13132 15.4588 9.57212C15.5236 9.65852 15.61 9.72332 15.7396 9.74492L17.7268 10.0473C18.2668 10.1337 18.634 10.6305 18.5476 11.1705C18.4612 11.7105 17.9644 12.0777 17.4244 11.9913L15.4372 11.6889C14.7892 11.5809 14.206 11.2353 13.8388 10.6953C13.7524 10.5657 13.6876 10.4577 13.6012 10.3497L12.3268 14.3889L14.098 16.1601C14.3572 16.4193 14.5732 16.7649 14.7028 17.1105L16.0636 21.0849C16.2796 21.6681 15.9556 22.3161 15.3724 22.5105C15.2428 22.5537 15.1348 22.5753 15.0052 22.5753C14.53 22.5753 14.098 22.2729 13.9252 21.8193L12.5644 17.8449C12.5428 17.8017 12.5212 17.7801 12.4996 17.7369L9.34595 14.5617C8.89235 14.1081 8.71955 13.4817 8.84915 12.8769L9.54035 9.80972C9.47555 9.85292 9.41075 9.89612 9.32435 9.93932C9.12995 10.0473 8.97875 10.2201 8.87075 10.4145L7.83395 12.4017C7.66115 12.7257 7.31555 12.9201 6.96995 12.9201C6.81875 12.9201 6.66755 12.8769 6.51635 12.8121C6.04115 12.5529 5.86835 11.9697 6.10595 11.4945Z" fill="#2A2B2E"/>
<path d="M14.6445 4.44081C14.7748 3.24305 13.9095 2.1664 12.7118 2.03603C11.514 1.90566 10.4374 2.77095 10.307 3.96871C10.1766 5.16646 11.0419 6.24312 12.2397 6.37349C13.4374 6.50385 14.5141 5.63856 14.6445 4.44081Z" fill="#2A2B2E"/>
</svg>
