<svg width="24" height="24" viewBox="0 0 24 24" fill="none" xmlns="http://www.w3.org/2000/svg">
<path d="M21.0796 4.39706L21.0795 4.39709L21.0828 4.40355C21.2313 4.70065 21.34 5.01596 21.4063 5.34138C21.4579 5.74461 21.4892 6.15019 21.5 6.55657V6.55743V6.5585V6.55957V6.56065V6.56172V6.5628V6.56388V6.56496V6.56605V6.56713V6.56822V6.56931V6.5704V6.57149V6.57258V6.57368V6.57478V6.57588V6.57698V6.57808V6.57919V6.58029V6.5814V6.58251V6.58362V6.58474V6.58585V6.58697V6.58809V6.58921V6.59033V6.59145V6.59258V6.5937V6.59483V6.59596V6.59709V6.59822V6.59936V6.60049V6.60163V6.60277V6.60391V6.60505V6.60619V6.60734V6.60848V6.60963V6.61078V6.61193V6.61308V6.61423V6.61538V6.61654V6.61769V6.61885V6.62001V6.62117V6.62233V6.6235V6.62466V6.62583V6.62699V6.62816V6.62933V6.6305V6.63167V6.63284V6.63402V6.63519V6.63637V6.63754V6.63872V6.6399V6.64108V6.64226V6.64344V6.64462V6.64581V6.64699V6.64818V6.64937V6.65056V6.65174V6.65293V6.65412V6.65532V6.65651V6.6577V6.6589V6.66009V6.66129V6.66248V6.66368V6.66488V6.66608V6.66728V6.66848V6.66968V6.67089V6.67209V6.67329V6.6745V6.6757V6.67691V6.67811V6.67932V6.68053V6.68174V6.68295V6.68416V6.68537V6.68658V6.68779V6.689V6.69021V6.69143V6.69264V6.69385V6.69507V6.69628V6.6975V6.69872V6.69993V6.70115V6.70237V6.70358V6.7048V6.70602V6.70724V6.70846V6.70968V6.7109V6.71212V6.71334V6.71456V6.71578V6.717V6.71823V6.71945V6.72067V6.72189V6.72311V6.72434V6.72556V6.72678V6.72801V6.72923V6.73045V6.73168V6.7329V6.73412V6.73535V6.73657V6.7378V6.73902V6.74024V6.74147V6.74269V6.74392V6.74514V6.74637V6.74759V6.74881V6.75004V6.75126V6.75249V6.75371V6.75493V6.75616V6.75738V6.7586V6.75983V6.76105V6.76227V6.76349V6.76472V6.76594V6.76716V6.76838V6.7696V6.77082V6.77204V6.77326V6.77448V6.7757V6.77692V6.77814V6.77936V6.78058V6.7818V6.78301V6.78423V6.78545V6.78666V6.78788V6.78909V6.79031V6.79152V6.79274V6.79395V6.79516V6.79637V6.79759V6.7988V6.80001V6.80122V6.80243V6.80364V6.80484V6.80605V6.80726V6.80846V6.80967V6.81087V6.81208V6.81328V6.81448V6.81568V6.81688V6.81809V6.81928V6.82048V6.82168V6.82288V6.82407V6.82527V6.82646V6.82766V6.82885V6.83004V6.83123V6.83242V6.83361V6.8348V6.83599V6.83717V6.83836V6.83954V6.84073V6.84191V6.84309V6.84427V6.84545V6.84663V6.8478V6.84898V6.85015V6.85133V6.8525V6.85367V6.85484V6.85601V6.85718V6.85835V6.85951V6.86067V6.86184V6.863V6.86416V6.86532V6.86648V6.86763V6.86879V6.86994V6.8711V6.87225V6.8734V6.87454V6.87569V6.87684V6.87798V6.87913V6.88027V6.88141V6.88255V6.88368V6.88482V6.88595V6.88708V6.88822V6.88935V6.89047V6.8916V6.89273V6.89385V6.89497V6.89609V6.89721V6.89833V6.89944V6.90055V6.90167V6.90278V6.90389V6.90499V6.9061V6.9072V6.9083V6.9094V6.9105V6.9116V6.91269V6.91378V6.91488V6.91596V6.91705V6.91814V6.91922V6.9203V6.92138V6.92246V6.92354V6.92461V6.92568V6.92675V6.92782V6.92889V6.92995V6.93101V6.93207V6.93313V6.93419V6.93524V6.93629V6.93734V6.93839V6.93944V6.94048V6.94152V6.94256V6.9436V6.94463V6.94566V6.94669V6.94772V6.94875V6.94977V6.95079V6.95181V6.95283V6.95385V6.95486V6.95587V6.95688V6.95788V6.95888V6.95988V6.96088V6.96188V6.96287V6.96386V6.96485V6.96584V6.96682V6.9678V6.96878V6.96976V6.97073V6.97171V6.97267V6.97364V6.97461V6.97557V6.97653V6.97748V6.97844V6.97939V6.98033V6.98128V6.98222V6.98316V6.9841V6.98504V6.98597V6.9869V6.98783V6.98875V6.98967V6.99059V6.99151V6.99242V6.99333V6.99424V6.99514V6.99604V6.99694V6.99784V6.99873V6.99962V7.00051V7.0014V7.00228V7.00316V7.00403V7.0049V7.00577V7.00664V7.0075V7.00837V7.00922V7.01008V7.01093V7.01178V7.01262V7.01347V7.01431V7.01514V7.01598V7.01681V7.01763V7.01846V7.01928V7.0201V7.02091V7.02172V7.02253V7.02333V7.02413V7.02493V7.02573V7.02652V7.02731V7.02809V7.02887V7.02965V7.03043V7.0312V7.03197V7.03273V7.03349V7.03425V7.03501V7.03576V7.0365V7.03725V7.03799V7.03873V7.03946V7.04019V7.04092V7.04164V7.04236V7.04308V7.04379V7.0445V7.0452V7.04591V7.0466V7.0473V7.04799V7.04868V7.04936V7.05004V7.05071V7.05139V7.05206V7.05272V7.05338V7.05404V7.05469V7.05534V7.05599V7.05663V7.05727V7.0579V7.05854V7.05916V7.05979V7.0604V7.06102V7.06163V7.06224V7.06284V7.06344V7.06404V7.06463V7.06522V7.0658V7.06638V7.06695V7.06753V7.06809V7.06866V7.06922V7.06977V7.07032V7.07087V7.07141V7.07195V7.07249V7.07302V7.07354V7.07407V7.07458V7.0751V7.07561V7.07611V7.07661V7.07711V7.0776V7.07809V7.07857V7.07905V7.07953V7.08V16.92V16.9206V16.9213V16.9219V16.9226V16.9233V16.9239V16.9246V16.9253V16.9259V16.9266V16.9273V16.9279V16.9286V16.9293V16.93V16.9307V16.9314V16.9321V16.9328V16.9335V16.9342V16.9349V16.9356V16.9363V16.937V16.9377V16.9385V16.9392V16.9399V16.9406V16.9414V16.9421V16.9428V16.9436V16.9443V16.9451V16.9458V16.9466V16.9473V16.9481V16.9488V16.9496V16.9504V16.9511V16.9519V16.9527V16.9534V16.9542V16.955V16.9558V16.9566V16.9573V16.9581V16.9589V16.9597V16.9605V16.9613V16.9621V16.9629V16.9637V16.9645V16.9654V16.9662V16.967V16.9678V16.9686V16.9695V16.9703V16.9711V16.9719V16.9728V16.9736V16.9745V16.9753V16.9761V16.977V16.9778V16.9787V16.9795V16.9804V16.9813V16.9821V16.983V16.9838V16.9847V16.9856V16.9865V16.9873V16.9882V16.9891V16.99V16.9908V16.9917V16.9926V16.9935V16.9944V16.9953V16.9962V16.9971V16.998V16.9989V16.9998V17.0007V17.0016V17.0025V17.0034V17.0044V17.0053V17.0062V17.0071V17.008V17.009V17.0099V17.0108V17.0118V17.0127V17.0136V17.0146V17.0155V17.0164V17.0174V17.0183V17.0193V17.0202V17.0212V17.0221V17.0231V17.0241V17.025V17.026V17.0269V17.0279V17.0289V17.0299V17.0308V17.0318V17.0328V17.0338V17.0347V17.0357V17.0367V17.0377V17.0387V17.0397V17.0406V17.0416V17.0426V17.0436V17.0446V17.0456V17.0466V17.0476V17.0486V17.0496V17.0507V17.0517V17.0527V17.0537V17.0547V17.0557V17.0567V17.0578V17.0588V17.0598V17.0608V17.0619V17.0629V17.0639V17.0649V17.066V17.067V17.068V17.0691V17.0701V17.0712V17.0722V17.0733V17.0743V17.0753V17.0764V17.0774V17.0785V17.0796V17.0806V17.0817V17.0827V17.0838V17.0848V17.0859V17.087V17.088V17.0891V17.0902V17.0912V17.0923V17.0934V17.0945V17.0955V17.0966V17.0977V17.0988V17.0998V17.1009V17.102V17.1031V17.1042V17.1053V17.1064V17.1074V17.1085V17.1096V17.1107V17.1118V17.1129V17.114V17.1151V17.1162V17.1173V17.1184V17.1195V17.1206V17.1217V17.1228V17.124V17.1251V17.1262V17.1273V17.1284V17.1295V17.1306V17.1317V17.1329V17.134V17.1351V17.1362V17.1373V17.1385V17.1396V17.1407V17.1418V17.143V17.1441V17.1452V17.1464V17.1475V17.1486V17.1498V17.1509V17.152V17.1532V17.1543V17.1554V17.1566V17.1577V17.1589V17.16V17.1611V17.1623V17.1634V17.1646V17.1657V17.1669V17.168V17.1692V17.1703V17.1715V17.1726V17.1738V17.1749V17.1761V17.1772V17.1784V17.1795V17.1807V17.1819V17.183V17.1842V17.1853V17.1865V17.1877V17.1888V17.19V17.1912V17.1923V17.1935V17.1947V17.1958V17.197V17.1982V17.1993V17.2005V17.2017V17.2028V17.204V17.2052V17.2063V17.2075V17.2087V17.2099V17.211V17.2122V17.2134V17.2146V17.2157V17.2169V17.2181V17.2193V17.2205V17.2216V17.2228V17.224V17.2252V17.2264V17.2275V17.2287V17.2299V17.2311V17.2323V17.2335V17.2346V17.2358V17.237V17.2382V17.2394V17.2406V17.2418V17.243V17.2441V17.2453V17.2465V17.2477V17.2489V17.2501V17.2513V17.2525V17.2536V17.2548V17.256V17.2572V17.2584V17.2596V17.2608V17.262V17.2632V17.2644V17.2656V17.2668V17.2679V17.2691V17.2703V17.2715V17.2727V17.2739V17.2751V17.2763V17.2775V17.2787V17.2799V17.2811V17.2823V17.2835V17.2847V17.2859V17.287V17.2882V17.2894V17.2906V17.2918V17.293V17.2942V17.2954V17.2966V17.2978V17.299V17.3002V17.3014V17.3026V17.3038V17.305V17.3062V17.3074V17.3085V17.3097V17.3109V17.3121V17.3133V17.3145V17.3157V17.3169V17.3181V17.3193V17.3205V17.3217V17.3229V17.3241V17.3253V17.3264V17.3276V17.3288V17.33V17.3312V17.3324V17.3336V17.3348V17.336V17.3372V17.3383V17.3395V17.3407V17.3419V17.3431V17.3443V17.3455V17.3467V17.3479V17.349V17.3502V17.3514V17.3526V17.3538V17.355V17.3561V17.3573V17.3585V17.3597V17.3609V17.3621V17.3632V17.3644V17.3656V17.3668V17.368V17.3691V17.3703V17.3715V17.3727V17.3738V17.375V17.3762V17.3774V17.3786V17.3797V17.3809V17.3821V17.3832V17.3844V17.3856V17.3868V17.3879V17.3891V17.3903V17.3914V17.3926V17.3938V17.3949V17.3961V17.3973V17.3984V17.3996V17.4008V17.4019V17.4031V17.4042V17.4054V17.4066V17.4077V17.4089V17.41V17.4112V17.4123V17.4135V17.4146V17.4158V17.4169V17.4181V17.4192V17.4204V17.4215V17.4227V17.4238V17.425V17.4261V17.4273V17.4284V17.4296V17.4307V17.4318V17.433V17.4341V17.4352V17.4364V17.4375V17.4386V17.4398V17.4409V17.442V17.4432V17.4443V17.4454V17.4466V17.4477V17.4488V17.4499V17.4511V17.4522V17.4533V17.4542C21.4906 17.8566 21.4562 18.2579 21.397 18.656C21.3338 18.9829 21.2277 19.3 21.0814 19.5991C20.9226 19.9194 20.7145 20.2127 20.4646 20.4683C20.2137 20.719 19.9224 20.9256 19.6029 21.0796L19.6029 21.0795L19.5965 21.0828C19.2993 21.2313 18.984 21.34 18.6586 21.4064C18.2554 21.4579 17.8498 21.4892 17.4434 21.5H6.54576C6.14344 21.4906 5.74209 21.4562 5.34404 21.397C5.01717 21.3338 4.70007 21.2277 4.40097 21.0815C4.08065 20.9227 3.78729 20.7145 3.53166 20.4646C3.28101 20.2137 3.07438 19.9224 2.92043 19.6029L2.92047 19.6029L2.91724 19.5965C2.76874 19.2994 2.65995 18.984 2.59365 18.6586C2.54206 18.2554 2.5108 17.8498 2.5 17.4434V17.4426V17.4415V17.4405V17.4394V17.4383V17.4372V17.4362V17.4351V17.434V17.433V17.4319V17.4308V17.4297V17.4286V17.4276V17.4265V17.4254V17.4243V17.4232V17.4221V17.4211V17.42V17.4189V17.4178V17.4167V17.4156V17.4145V17.4134V17.4123V17.4112V17.4101V17.409V17.4079V17.4068V17.4057V17.4046V17.4035V17.4024V17.4013V17.4002V17.3991V17.398V17.3968V17.3957V17.3946V17.3935V17.3924V17.3913V17.3902V17.389V17.3879V17.3868V17.3857V17.3846V17.3834V17.3823V17.3812V17.3801V17.3789V17.3778V17.3767V17.3756V17.3744V17.3733V17.3722V17.371V17.3699V17.3688V17.3676V17.3665V17.3654V17.3642V17.3631V17.362V17.3608V17.3597V17.3585V17.3574V17.3563V17.3551V17.354V17.3528V17.3517V17.3505V17.3494V17.3483V17.3471V17.346V17.3448V17.3437V17.3425V17.3414V17.3402V17.3391V17.3379V17.3368V17.3356V17.3345V17.3333V17.3322V17.331V17.3299V17.3287V17.3276V17.3264V17.3253V17.3241V17.3229V17.3218V17.3206V17.3195V17.3183V17.3172V17.316V17.3148V17.3137V17.3125V17.3114V17.3102V17.309V17.3079V17.3067V17.3056V17.3044V17.3032V17.3021V17.3009V17.2997V17.2986V17.2974V17.2963V17.2951V17.2939V17.2928V17.2916V17.2904V17.2893V17.2881V17.287V17.2858V17.2846V17.2835V17.2823V17.2811V17.28V17.2788V17.2776V17.2765V17.2753V17.2741V17.273V17.2718V17.2706V17.2695V17.2683V17.2671V17.266V17.2648V17.2636V17.2625V17.2613V17.2601V17.259V17.2578V17.2566V17.2555V17.2543V17.2532V17.252V17.2508V17.2497V17.2485V17.2473V17.2462V17.245V17.2438V17.2427V17.2415V17.2403V17.2392V17.238V17.2369V17.2357V17.2345V17.2334V17.2322V17.231V17.2299V17.2287V17.2276V17.2264V17.2252V17.2241V17.2229V17.2218V17.2206V17.2194V17.2183V17.2171V17.216V17.2148V17.2137V17.2125V17.2113V17.2102V17.209V17.2079V17.2067V17.2056V17.2044V17.2033V17.2021V17.201V17.1998V17.1987V17.1975V17.1964V17.1952V17.1941V17.1929V17.1918V17.1906V17.1895V17.1883V17.1872V17.186V17.1849V17.1837V17.1826V17.1815V17.1803V17.1792V17.178V17.1769V17.1758V17.1746V17.1735V17.1723V17.1712V17.1701V17.1689V17.1678V17.1667V17.1655V17.1644V17.1633V17.1621V17.161V17.1599V17.1588V17.1576V17.1565V17.1554V17.1542V17.1531V17.152V17.1509V17.1498V17.1486V17.1475V17.1464V17.1453V17.1442V17.143V17.1419V17.1408V17.1397V17.1386V17.1375V17.1364V17.1353V17.1341V17.133V17.1319V17.1308V17.1297V17.1286V17.1275V17.1264V17.1253V17.1242V17.1231V17.122V17.1209V17.1198V17.1187V17.1176V17.1165V17.1155V17.1144V17.1133V17.1122V17.1111V17.11V17.1089V17.1079V17.1068V17.1057V17.1046V17.1035V17.1025V17.1014V17.1003V17.0992V17.0982V17.0971V17.096V17.095V17.0939V17.0928V17.0918V17.0907V17.0896V17.0886V17.0875V17.0865V17.0854V17.0843V17.0833V17.0822V17.0812V17.0801V17.0791V17.0781V17.077V17.076V17.0749V17.0739V17.0728V17.0718V17.0708V17.0697V17.0687V17.0677V17.0666V17.0656V17.0646V17.0636V17.0625V17.0615V17.0605V17.0595V17.0585V17.0574V17.0564V17.0554V17.0544V17.0534V17.0524V17.0514V17.0504V17.0494V17.0484V17.0474V17.0464V17.0454V17.0444V17.0434V17.0424V17.0414V17.0404V17.0394V17.0385V17.0375V17.0365V17.0355V17.0345V17.0336V17.0326V17.0316V17.0306V17.0297V17.0287V17.0277V17.0268V17.0258V17.0249V17.0239V17.023V17.022V17.021V17.0201V17.0192V17.0182V17.0173V17.0163V17.0154V17.0144V17.0135V17.0126V17.0116V17.0107V17.0098V17.0089V17.0079V17.007V17.0061V17.0052V17.0043V17.0034V17.0024V17.0015V17.0006V16.9997V16.9988V16.9979V16.997V16.9961V16.9952V16.9943V16.9934V16.9926V16.9917V16.9908V16.9899V16.989V16.9881V16.9873V16.9864V16.9855V16.9847V16.9838V16.9829V16.9821V16.9812V16.9804V16.9795V16.9787V16.9778V16.977V16.9761V16.9753V16.9744V16.9736V16.9728V16.9719V16.9711V16.9703V16.9694V16.9686V16.9678V16.967V16.9662V16.9653V16.9645V16.9637V16.9629V16.9621V16.9613V16.9605V16.9597V16.9589V16.9581V16.9573V16.9566V16.9558V16.955V16.9542V16.9534V16.9527V16.9519V16.9511V16.9504V16.9496V16.9488V16.9481V16.9473V16.9466V16.9458V16.9451V16.9443V16.9436V16.9428V16.9421V16.9414V16.9406V16.9399V16.9392V16.9385V16.9377V16.937V16.9363V16.9356V16.9349V16.9342V16.9335V16.9328V16.9321V16.9314V16.9307V16.93V16.9293V16.9286V16.9279V16.9273V16.9266V16.9259V16.9253V16.9246V16.9239V16.9233V16.9226V16.9219V16.9213V16.9206V16.92V7.08V6.54576C2.5094 6.14345 2.54379 5.74211 2.60299 5.34406C2.66618 5.01715 2.77229 4.7 2.91858 4.40086C3.07738 4.08057 3.28555 3.78725 3.53547 3.53164C3.78633 3.281 4.0776 3.07438 4.39706 2.92043L4.39709 2.92047L4.40355 2.91724C4.70065 2.76874 5.01596 2.65995 5.34137 2.59365C5.74461 2.54206 6.15019 2.5108 6.55658 2.5H17.4542C17.8565 2.5094 18.2579 2.54379 18.6559 2.60299C18.9829 2.66618 19.3 2.7723 19.5992 2.9186C19.9194 3.07739 20.2127 3.28555 20.4683 3.53545C20.719 3.78632 20.9256 4.07759 21.0796 4.39706ZM12.2275 19.5V19.5L12.2335 19.5C13.7492 19.4894 15.2279 19.0306 16.4834 18.1812C17.7388 17.3319 18.7149 16.13 19.2886 14.7271C19.8623 13.3241 20.008 11.7827 19.7074 10.297C19.4068 8.81137 18.6733 7.44789 17.5992 6.37832C16.5252 5.30874 15.1587 4.5809 13.6718 4.28646C12.1849 3.99203 10.6442 4.14416 9.24356 4.72371C7.84296 5.30325 6.64518 6.28429 5.80107 7.54326C4.95695 8.80224 4.50426 10.2828 4.5 11.7986H4.49997L4.50002 11.804C4.51014 13.0821 4.84199 14.3358 5.4634 15.4501L4.51714 18.9702L4.29327 19.803L5.12725 19.5835L8.73636 18.6338C9.8134 19.1965 11.0104 19.494 12.2275 19.5ZM12.2357 6.36997L12.7769 6.36377L12.77 6.28755C14.0267 6.41382 15.2081 6.96993 16.1091 7.87091C17.1405 8.90236 17.72 10.3013 17.72 11.76C17.72 13.2187 17.1405 14.6176 16.1091 15.6491C15.0781 16.6801 13.6799 17.2595 12.2219 17.26C11.255 17.2524 10.3072 16.99 9.47408 16.4994C9.47397 16.4993 9.47387 16.4992 9.47376 16.4992L9.25437 16.3695L9.07257 16.2621L8.8688 16.3175L7.43355 16.7078L7.80223 15.3621L7.8592 15.1542L7.7471 14.97L7.6071 14.74L7.60655 14.7391C7.09948 13.91 6.82117 12.9613 6.79997 11.9896C6.77876 11.0179 7.01541 10.058 7.48583 9.20753C7.95624 8.35705 8.64362 7.64642 9.47798 7.14798C10.3123 6.64954 11.2639 6.38109 12.2357 6.36997ZM16.1588 14.6471L16.23 14.5284V14.4405C16.3236 14.136 16.3455 13.8134 16.2933 13.4983L16.2769 13.3997L16.224 13.315C16.1304 13.1652 15.999 13.0847 15.9216 13.0417C15.8752 13.0159 15.808 12.9833 15.7509 12.9557C15.7256 12.9434 15.7022 12.9321 15.6836 12.9228C15.5142 12.8381 14.5962 12.3933 14.4056 12.3218C14.4029 12.3208 14.4001 12.3198 14.3971 12.3187C14.3243 12.2912 14.1515 12.2259 13.9577 12.2483C13.7028 12.2777 13.5273 12.4326 13.414 12.6027C13.3667 12.6736 13.2605 12.8146 13.1484 12.9535C13.104 13.0085 13.0614 13.0598 13.0242 13.1029C12.5644 12.9131 12.1391 12.6484 11.7657 12.3194C11.455 12.0302 11.1822 11.7033 10.9534 11.3463C11.0118 11.2794 11.0708 11.2059 11.1185 11.1466C11.136 11.1249 11.152 11.105 11.1658 11.0881C11.269 10.9637 11.3533 10.8248 11.4159 10.6758C11.4695 10.5632 11.4974 10.4399 11.4974 10.315C11.4974 10.1818 11.4657 10.0506 11.405 9.93205L11.4012 9.92455L11.3971 9.91718C11.399 9.9207 11.3967 9.91539 11.3895 9.8988C11.3798 9.87645 11.3612 9.83365 11.3322 9.76443C11.2891 9.66163 11.2345 9.52898 11.1761 9.38723L11.1686 9.36897C11.0561 9.09561 10.9285 8.78544 10.8557 8.62421C10.76 8.41244 10.628 8.23236 10.4343 8.12317C10.2491 8.01884 10.0713 8.01968 10.0083 8.01997C10.0053 8.01999 10.0025 8.02 10 8.02H9.72V8.01997L9.71425 8.02003C9.55334 8.02189 9.39462 8.05748 9.24833 8.12453C9.10977 8.18804 8.98529 8.27842 8.88207 8.39035C8.63409 8.6274 8.43749 8.913 8.30459 9.22943C8.16893 9.55244 8.10267 9.90036 8.11011 10.2506L8.11046 10.2668L8.11185 10.283C8.17785 11.048 8.46374 11.7775 8.93487 12.3836C9.75149 13.5977 10.8678 14.5806 12.1758 15.2369L12.1851 15.2416L12.1946 15.2459C12.5381 15.4006 12.8906 15.5346 13.2502 15.647C13.6897 15.7856 14.1565 15.8147 14.6099 15.7319L14.6099 15.7319L14.6164 15.7306C14.935 15.668 15.2369 15.5392 15.5026 15.3526C15.7683 15.1659 15.9919 14.9256 16.1588 14.6471Z" fill="#31DA57" stroke="#31DA57"/>
</svg>
