<svg width="20" height="20" viewBox="0 0 20 20" fill="none" xmlns="http://www.w3.org/2000/svg">
<path d="M19.1688 8.09165C19.21 6.89886 18.9492 5.715 18.4105 4.64999C18.045 4.21299 17.5377 3.91808 16.9771 3.81665C14.6584 3.60626 12.3301 3.52002 10.0021 3.55832C7.68268 3.51829 5.36273 3.60174 3.05214 3.80832C2.59532 3.89142 2.17257 4.10569 1.83547 4.42499C1.08547 5.11665 1.00214 6.29999 0.918805 7.29999C0.797898 9.09796 0.797898 10.902 0.918805 12.7C0.942913 13.2628 1.02672 13.8215 1.1688 14.3667C1.26928 14.7875 1.47257 15.1769 1.76047 15.5C2.09986 15.8362 2.53246 16.0627 3.00214 16.15C4.79874 16.3717 6.60899 16.4637 8.41881 16.425C11.3355 16.4667 13.8938 16.425 16.9188 16.1917C17.4 16.1097 17.8448 15.8829 18.1938 15.5417C18.4271 15.3082 18.6014 15.0226 18.7021 14.7083C19.0002 13.7938 19.1465 12.8367 19.1355 11.875C19.1688 11.4083 19.1688 8.59165 19.1688 8.09165ZM8.1188 12.375V7.21665L13.0521 9.80832C11.6688 10.575 9.84381 11.4417 8.1188 12.375Z" fill="#EF370F"/>
</svg>
