<svg width="120" height="120" viewBox="0 0 120 120" fill="none" xmlns="http://www.w3.org/2000/svg">
<circle cx="59.9999" cy="59.9999" r="45.2055" fill="#27AE60" fill-opacity="0.3"/>
<circle cx="60" cy="60" r="60" fill="#27AE60" fill-opacity="0.3"/>
<circle cx="59.9999" cy="59.9999" r="29.589" fill="#27AE60"/>
<path d="M72.5738 51.103L72.5803 51.1095L72.587 51.1157C72.7399 51.2568 72.862 51.428 72.9455 51.6187C73.029 51.8093 73.0721 52.0151 73.0721 52.2232C73.0721 52.4313 73.029 52.6372 72.9455 52.8278C72.862 53.0184 72.7399 53.1896 72.587 53.3307L72.5809 53.3364L72.575 53.3422L56.9257 68.9915L56.9245 68.9927C56.7844 69.134 56.6178 69.2461 56.4342 69.3226C56.2505 69.3991 56.0536 69.4384 55.8547 69.4384C55.6557 69.4384 55.4588 69.3991 55.2752 69.3226C55.0915 69.2461 54.9249 69.134 54.7848 68.9927L54.7836 68.9915L47.4192 61.6271L47.4193 61.6271L47.4142 61.6222C47.2679 61.4808 47.1508 61.3121 47.0698 61.1255C46.9887 60.939 46.9451 60.7383 46.9416 60.5349C46.9381 60.3316 46.9747 60.1295 47.0492 59.9403C47.1238 59.751 47.2349 59.5783 47.3763 59.432C47.5176 59.2857 47.6863 59.1687 47.8729 59.0876L47.7091 58.7107L47.8729 59.0876C48.0594 59.0065 48.2601 58.963 48.4635 58.9595C48.6669 58.956 48.8689 58.9925 49.0582 59.0671C49.2463 59.1412 49.418 59.2515 49.5638 59.3916L55.5636 65.4106L55.8544 65.7023L56.1454 65.4109L70.4331 51.104L70.4341 51.103C70.5742 50.9618 70.7409 50.8497 70.9245 50.7732C71.1081 50.6967 71.3051 50.6573 71.504 50.6573C71.7029 50.6573 71.8999 50.6967 72.0835 50.7732C72.2671 50.8497 72.4338 50.9618 72.5738 51.103Z" fill="white" stroke="white" stroke-width="0.821918"/>
</svg>
