<svg width="24" height="24" viewBox="0 0 24 24" fill="none" xmlns="http://www.w3.org/2000/svg">
<path fill-rule="evenodd" clip-rule="evenodd" d="M10.7771 19.8601C9.74549 18.8409 8.47009 17.4399 7.38472 15.9048C6.80844 15.0897 6.25844 14.1994 5.83215 13.2812C6.45443 14.6276 7.36344 15.9674 8.34098 17.1798C9.21334 18.2618 10.0959 19.1889 10.7771 19.8601ZM11.35 21.76L11.3483 21.7586C11.025 21.4784 4 15.3904 4 10C4 7.87827 4.84285 5.84344 6.34315 4.34315C7.84344 2.84285 9.87827 2 12 2C14.1217 2 16.1566 2.84285 17.6569 4.34315C19.1571 5.84344 20 7.87827 20 10C20 15.4 13 21.5 12.65 21.76C12.4689 21.9149 12.2384 22.0001 12 22.0001C11.7616 22.0001 11.5311 21.9149 11.35 21.76ZM12.1814 20.8491L12.6827 20.3807C13.7819 19.3538 15.3317 17.7253 16.6155 15.9083C17.6092 14.5018 18.5246 12.8709 18.8624 11.2603C18.4463 13.2498 17.1398 15.3602 15.6767 17.1812C14.8102 18.2596 13.9304 19.186 13.2454 19.8587C12.9034 20.1946 12.612 20.4652 12.3977 20.6579C12.312 20.7349 12.2394 20.7989 12.1814 20.8491ZM12 19.65C14.13 17.66 18 13.34 18 10C18 8.4087 17.3679 6.88258 16.2426 5.75736C15.1174 4.63214 13.5913 4 12 4C10.4087 4 8.88258 4.63214 7.75736 5.75736C6.63214 6.88258 6 8.4087 6 10C6 13.34 9.87 17.65 12 19.65ZM14.5913 8.48825C14.4995 8.33092 14.3931 8.18148 14.273 8.04206C14.3524 8.13421 14.4263 8.23143 14.4944 8.33329C14.5283 8.38405 14.5606 8.43573 14.5913 8.48825ZM11.4147 7.05764C11.3904 7.06248 11.3662 7.06762 11.342 7.07305C11.3661 7.06762 11.3904 7.06248 11.4147 7.05764C11.4147 7.05764 11.4147 7.05764 11.4147 7.05764ZM9.05764 9.41472C9.05281 9.43904 9.04827 9.46342 9.04404 9.48784C9.04827 9.46344 9.0528 9.43906 9.05764 9.41473C9.05764 9.41473 9.05764 9.41473 9.05764 9.41472ZM9.77772 6.67412C10.4355 6.2346 11.2089 6 12 6C13.0609 6 14.0783 6.42143 14.8284 7.17157C15.5786 7.92172 16 8.93913 16 10C16 10.7911 15.7654 11.5645 15.3259 12.2223C14.8864 12.8801 14.2616 13.3928 13.5307 13.6955C12.7998 13.9983 11.9956 14.0775 11.2196 13.9231C10.4437 13.7688 9.73098 13.3878 9.17157 12.8284C8.61216 12.269 8.2312 11.5563 8.07686 10.7804C7.92252 10.0044 8.00173 9.20017 8.30448 8.46927C8.60723 7.73836 9.11992 7.11365 9.77772 6.67412ZM10.8889 11.6629C11.2178 11.8827 11.6044 12 12 12C12.5304 12 13.0391 11.7893 13.4142 11.4142C13.7893 11.0391 14 10.5304 14 10C14 9.60444 13.8827 9.21776 13.6629 8.88886C13.4432 8.55996 13.1308 8.30362 12.7654 8.15224C12.3999 8.00087 11.9978 7.96126 11.6098 8.03843C11.2219 8.1156 10.8655 8.30608 10.5858 8.58579C10.3061 8.86549 10.1156 9.22186 10.0384 9.60982C9.96126 9.99778 10.0009 10.3999 10.1522 10.7654C10.3036 11.1308 10.56 11.4432 10.8889 11.6629Z" fill="#1B1C1E"/>
</svg>
