<svg width="27" height="24" viewBox="0 0 27 24" fill="none" xmlns="http://www.w3.org/2000/svg">
<g clip-path="url(#clip0)">
<path d="M16.8 11.4L6.60001 9.59998V22.9002C6.60001 23.5076 7.0924 24 7.6998 24H25.3002C25.9076 24 26.4 23.5076 26.4 22.9002V18L16.8 11.4Z" fill="#185C37"/>
<path d="M16.8 0H7.6998C7.0924 0 6.60001 0.492394 6.60001 1.0998V6L16.8 12L22.2 13.8L26.4 12V6L16.8 0Z" fill="#21A366"/>
<path d="M6.60001 6H16.8V12H6.60001V6Z" fill="#107C41"/>
<path opacity="0.1" d="M13.9002 4.79999H6.60001V19.8H13.9002C14.5067 19.798 14.998 19.3068 14.9999 18.7002V5.89978C14.998 5.2932 14.5067 4.80196 13.9002 4.79999Z" fill="black"/>
<path opacity="0.2" d="M13.3002 5.40002H6.60001V20.4H13.3002C13.9068 20.3981 14.398 19.9068 14.4 19.3002V6.49982C14.398 5.89324 13.9068 5.402 13.3002 5.40002Z" fill="black"/>
<path opacity="0.2" d="M13.3002 5.40002H6.60001V19.2H13.3002C13.9068 19.1981 14.398 18.7068 14.4 18.1002V6.49982C14.398 5.89324 13.9068 5.402 13.3002 5.40002Z" fill="black"/>
<path opacity="0.2" d="M12.7002 5.40002H6.60001V19.2H12.7002C13.3068 19.1981 13.798 18.7068 13.8 18.1002V6.49982C13.798 5.89324 13.3068 5.402 12.7002 5.40002Z" fill="black"/>
<path d="M1.6998 5.40002H12.7002C13.3076 5.40002 13.8 5.89242 13.8 6.49982V17.5002C13.8 18.1076 13.3076 18.6 12.7002 18.6H1.6998C1.0924 18.6 0.600006 18.1076 0.600006 17.5002V6.49982C0.600006 5.89242 1.0924 5.40002 1.6998 5.40002Z" fill="url(#paint0_linear)"/>
<path d="M4.0062 15.5748L6.3198 11.9898L4.2 8.42462H5.90519L7.06199 10.7046C7.1688 10.9212 7.24199 11.082 7.2816 11.1882H7.2966C7.3726 11.0154 7.4526 10.8476 7.5366 10.6848L8.77319 8.42583H10.3386L8.16479 11.97L10.3938 15.5748H8.7282L7.392 13.0722C7.32906 12.9657 7.27565 12.8539 7.2324 12.738H7.21261C7.17346 12.8516 7.12153 12.9603 7.0578 13.062L5.682 15.5748H4.0062Z" fill="white"/>
<path d="M25.3002 0H16.8V6H26.4V1.0998C26.4 0.492394 25.9076 0 25.3002 0Z" fill="#33C481"/>
<path d="M16.8 12H26.4V18H16.8V12Z" fill="#107C41"/>
</g>
<defs>
<linearGradient id="paint0_linear" x1="2.89311" y1="4.54066" x2="11.5069" y2="19.4594" gradientUnits="userSpaceOnUse">
<stop stop-color="#18884F"/>
<stop offset="0.5" stop-color="#117E43"/>
<stop offset="1" stop-color="#0B6631"/>
</linearGradient>
<clipPath id="clip0">
<rect width="25.8" height="24" fill="white" transform="translate(0.600006)"/>
</clipPath>
</defs>
</svg>
