<svg width="23" height="25" viewBox="0 0 23 25" fill="none" xmlns="http://www.w3.org/2000/svg">
<g clip-path="url(#clip0)">
<path d="M20.4034 2.36621C19.8007 1.81013 17.3653 0.0421592 11.9405 0.0181398C11.9405 0.0181398 5.54339 -0.367626 2.42488 2.49286C0.68893 4.22917 0.0782562 6.76977 0.0138406 9.91958C-0.050575 13.0694 -0.133916 18.9723 5.55613 20.5729H5.56159L5.55795 23.0152C5.55795 23.0152 5.52155 24.004 6.17262 24.2056C6.96017 24.4502 7.42236 23.6987 8.17424 22.8886C8.58693 22.4439 9.15685 21.7906 9.58629 21.2913C13.4778 21.6188 16.4707 20.8702 16.8107 20.7596C17.5964 20.5048 22.0425 19.9353 22.7656 14.0327C23.5121 7.9489 22.4046 4.1007 20.4034 2.36621Z" fill="white"/>
<path d="M19.1386 3.59449C18.6291 3.13157 16.4299 1.74973 11.8411 1.72972C11.8411 1.72972 6.40726 1.3727 3.7695 3.7619C2.3014 5.21143 1.80682 7.36699 1.7526 9.99747C1.69837 12.628 1.41742 17.6531 6.22893 18.9898C6.22893 18.9898 6.21001 22.7205 6.20783 23.0484C6.20783 23.2776 6.24422 23.4345 6.37523 23.4669C6.46949 23.4898 6.6107 23.441 6.73079 23.3213C7.50014 22.5487 9.96322 19.5772 9.96322 19.5772C13.2681 19.793 15.8975 19.1405 16.1802 19.048C16.8469 18.8337 20.4531 18.524 21.0634 13.5942C21.6941 8.51264 20.8316 5.04403 19.1386 3.59449Z" fill="#7360F2"/>
<path d="M14.1739 9.78133C14.1142 8.57818 13.5031 7.94628 12.3404 7.88562" stroke="white" stroke-width="0.613586" stroke-linecap="round" stroke-linejoin="round"/>
<path d="M15.7481 10.3091C15.7724 9.18818 15.4403 8.25167 14.752 7.49955C14.0606 6.74476 13.1034 6.32915 11.8752 6.23926" stroke="white" stroke-width="0.613586" stroke-linecap="round" stroke-linejoin="round"/>
<path d="M17.3592 10.9393C17.3444 8.99424 16.7632 7.46234 15.6156 6.34362C14.468 5.2249 13.0408 4.65959 11.334 4.64771" stroke="white" stroke-width="0.613586" stroke-linecap="round" stroke-linejoin="round"/>
<path d="M12.4011 13.8904C12.4011 13.8904 12.8323 13.9268 13.0645 13.6408L13.5172 13.0712C13.7356 12.7888 14.2626 12.6087 14.7786 12.8962C15.1653 13.1167 15.5408 13.3565 15.9035 13.6146C16.246 13.8664 16.9473 14.4516 16.9495 14.4516C17.2835 14.7337 17.3607 15.1478 17.1332 15.5845C17.1332 15.5871 17.1314 15.5914 17.1314 15.5936C16.8809 16.0279 16.5628 16.4195 16.1892 16.7538C16.1848 16.756 16.1848 16.7582 16.1808 16.7604C15.8562 17.0316 15.5373 17.1858 15.2241 17.2229C15.1779 17.231 15.1311 17.2339 15.0843 17.2317C14.9462 17.233 14.8088 17.2119 14.6774 17.1691L14.6672 17.1542C14.1847 17.018 13.3789 16.6774 12.0371 15.9372C11.2606 15.5139 10.5214 15.0255 9.82735 14.4775C9.47946 14.2029 9.14762 13.9086 8.83345 13.596L8.79997 13.5625L8.76649 13.5291L8.73301 13.4956C8.72173 13.4847 8.71081 13.4734 8.69953 13.4621C8.38695 13.1479 8.09265 12.8161 7.81809 12.4682C7.27008 11.7742 6.78177 11.0351 6.35837 10.2588C5.61813 8.91661 5.2775 8.11159 5.14139 7.62829L5.12647 7.6181C5.0838 7.48675 5.06278 7.34933 5.06423 7.21123C5.06169 7.16448 5.06449 7.11759 5.0726 7.07148C5.11167 6.75875 5.26609 6.43958 5.53589 6.11398C5.53807 6.10998 5.54025 6.10998 5.54244 6.10561C5.87663 5.73197 6.26829 5.41403 6.70265 5.16376C6.70483 5.16376 6.7092 5.16158 6.71174 5.16158C7.14846 4.93412 7.56261 5.01128 7.84429 5.34354C7.84648 5.34573 8.43058 6.04702 8.68133 6.38948C8.93944 6.75258 9.17921 7.12839 9.39973 7.51548C9.68723 8.03117 9.50709 8.55923 9.22468 8.77686L8.65513 9.22959C8.36762 9.46177 8.40547 9.89303 8.40547 9.89303C8.40547 9.89303 9.24906 13.0858 12.4011 13.8904Z" fill="white"/>
</g>
<defs>
<clipPath id="clip0">
<rect width="23" height="24.2534" fill="white"/>
</clipPath>
</defs>
</svg>
