<svg width="24" height="24" viewBox="0 0 24 24" fill="none" xmlns="http://www.w3.org/2000/svg">
<path d="M20.0001 9.66998V9.49998C20.0061 7.79893 19.4664 6.14078 18.4602 4.7692C17.454 3.39762 16.0345 2.38494 14.4101 1.87998H14.3501C13.5111 1.62422 12.637 1.50272 11.7601 1.51998C9.67189 1.63458 7.70616 2.54173 6.26406 4.05631C4.82196 5.57089 4.01221 7.5787 4.00007 9.66998C3.41408 9.87612 2.90653 10.2591 2.54748 10.766C2.18844 11.2729 1.99561 11.8788 1.99561 12.5C1.99561 13.1212 2.18844 13.727 2.54748 14.234C2.90653 14.7409 3.41408 15.1238 4.00007 15.33C4.20603 17.3048 5.13898 19.1324 6.61754 20.4576C8.0961 21.7827 10.0146 22.5107 12.0001 22.5H12.2301C14.15 22.4071 15.975 21.6368 17.3809 20.3261C18.7869 19.0153 19.683 17.2487 19.9101 15.34C20.5029 15.1455 21.0204 14.771 21.3905 14.2686C21.7605 13.7662 21.9647 13.1609 21.9746 12.537C21.9845 11.9132 21.7997 11.3017 21.4457 10.7878C21.0918 10.2739 20.5865 9.88318 20.0001 9.66998V9.66998ZM12.1801 20.5C10.7325 20.5419 9.31856 20.0587 8.19927 19.1398C7.07998 18.2208 6.33083 16.928 6.09007 15.5H17.8601C17.616 16.8519 16.922 18.0815 15.8909 18.9892C14.8597 19.8969 13.552 20.4294 12.1801 20.5ZM19.0001 13.5H5.00007C4.73485 13.5 4.4805 13.3946 4.29296 13.2071C4.10542 13.0196 4.00007 12.7652 4.00007 12.5C4.00007 12.2348 4.10542 11.9804 4.29296 11.7929C4.4805 11.6053 4.73485 11.5 5.00007 11.5H7.00007C7.26528 11.5 7.51964 11.3946 7.70717 11.2071C7.89471 11.0196 8.00007 10.7652 8.00007 10.5C8.00007 10.2348 7.89471 9.98041 7.70717 9.79288C7.51964 9.60534 7.26528 9.49998 7.00007 9.49998H6.00007C6.04483 8.4626 6.34133 7.45168 6.86398 6.55445C7.38664 5.65723 8.11975 4.90064 9.00007 4.34998V7.49998C9.00007 7.7652 9.10542 8.01955 9.29296 8.20709C9.4805 8.39463 9.73485 8.49998 10.0001 8.49998C10.2653 8.49998 10.5196 8.39463 10.7072 8.20709C10.8947 8.01955 11.0001 7.7652 11.0001 7.49998V3.58998C11.2715 3.54464 11.5453 3.51459 11.8201 3.49998H12.0001C12.3352 3.5047 12.6695 3.53479 13.0001 3.58998V7.49998C13.0001 7.7652 13.1054 8.01955 13.293 8.20709C13.4805 8.39463 13.7348 8.49998 14.0001 8.49998C14.2653 8.49998 14.5196 8.39463 14.7072 8.20709C14.8947 8.01955 15.0001 7.7652 15.0001 7.49998V4.31998C15.4243 4.56561 15.82 4.85738 16.1801 5.18998C16.7566 5.74988 17.2148 6.4199 17.5275 7.16028C17.8401 7.90066 18.0008 8.6963 18.0001 9.49998H17.0001C16.7348 9.49998 16.4805 9.60534 16.293 9.79288C16.1054 9.98041 16.0001 10.2348 16.0001 10.5C16.0001 10.7652 16.1054 11.0196 16.293 11.2071C16.4805 11.3946 16.7348 11.5 17.0001 11.5H19.0001C19.2653 11.5 19.5196 11.6053 19.7072 11.7929C19.8947 11.9804 20.0001 12.2348 20.0001 12.5C20.0001 12.7652 19.8947 13.0196 19.7072 13.2071C19.5196 13.3946 19.2653 13.5 19.0001 13.5Z" fill="#2A2B2E"/>
</svg>
