<svg width="24" height="24" viewBox="0 0 24 24" fill="none" xmlns="http://www.w3.org/2000/svg">
<path fill-rule="evenodd" clip-rule="evenodd" d="M12.002 1C16.4279 1 20.002 4.69567 20.002 9.2381V13.7619C20.002 17.6537 17.3784 20.9239 13.8434 21.7809C13.5402 22.497 12.8298 23 12.002 23C10.8974 23 10.002 22.1046 10.002 21C10.002 19.8954 10.8974 19 12.002 19C12.6464 19 13.2196 19.3048 13.5854 19.778C16.127 19.0583 18.002 16.6422 18.002 13.7619V9.2381C18.002 5.78554 15.308 3 12.002 3C8.69587 3 6.00195 5.78554 6.00195 9.2381V13.7619C6.00195 14.3142 5.55424 14.7619 5.00195 14.7619C4.44967 14.7619 4.00195 14.3142 4.00195 13.7619V9.2381C4.00195 4.69567 7.57605 1 12.002 1ZM2.00195 8C2.55424 8 3.00195 8.44772 3.00195 9V14C3.00195 14.5523 2.55424 15 2.00195 15C1.44967 15 1.00195 14.5523 1.00195 14V9C1.00195 8.44772 1.44967 8 2.00195 8ZM22.002 8C22.5542 8 23.002 8.44772 23.002 9V14C23.002 14.5523 22.5542 15 22.002 15C21.4497 15 21.002 14.5523 21.002 14V9C21.002 8.44772 21.4497 8 22.002 8Z" fill="#242424"/>
</svg>
